<svg width="50" height="48" viewBox="0 0 50 48" fill="none" xmlns="http://www.w3.org/2000/svg">
<rect width="49" height="47" rx="23.5" transform="matrix(-1 0 0 1 49.4683 0.150986)" fill="#2C52CD"/>
<path d="M16.7397 23.3629C16.7397 23.7281 16.8901 24.0934 17.1372 24.3404L22.5942 29.776C22.8735 30.0445 23.1958 30.1842 23.5073 30.1842C24.2808 30.1842 24.8071 29.6471 24.8071 28.9381C24.8071 28.5514 24.6353 28.2399 24.3882 28.0035L22.6802 26.2848L20.811 24.5768L22.6479 24.6842H31.8325C32.6489 24.6842 33.1968 24.1471 33.1968 23.3629C33.1968 22.5787 32.6489 22.0524 31.8325 22.0524H22.6479L20.811 22.1598L22.6802 20.4518L24.3882 18.733C24.6353 18.4859 24.8071 18.1852 24.8071 17.7877C24.8071 17.0787 24.2808 16.5416 23.5073 16.5416C23.1958 16.5416 22.8735 16.6813 22.5942 16.9606L17.1372 22.3961C16.8901 22.6432 16.7397 23.0084 16.7397 23.3629Z" fill="white"/>
</svg>
