<svg width="179" height="387" viewBox="0 0 179 387" fill="none" xmlns="http://www.w3.org/2000/svg">
<path d="M2.75292 26.7353C2.98286 22.2113 7.52285 8.83203 24.624 3.89099C41.7251 -1.05005 132.765 -1.01797 153.107 4.57279C170.903 9.46303 176.59 22.698 176.745 26.9786C178.532 76.1403 178.598 128.914 176.125 184.851C173.254 249.817 167.345 310.334 159.708 365.83C158.698 373.175 153.019 379.084 145.562 380.549C129.528 383.699 109.985 386.161 87.7292 386.121C65.9384 386.081 46.7758 383.653 30.9848 380.552C23.5197 379.087 17.8327 373.162 16.8434 365.806C9.36237 310.329 3.7315 249.44 1.46419 183.814C-0.474262 127.938 0.266359 75.4158 2.75292 26.7353Z" fill="#303077"/>
<path d="M22.5578 26.0507L16.4884 50.0928C14.9377 56.2343 19.7103 62.1646 26.2047 62.1646H148.054C154.418 62.1646 159.166 56.4509 157.84 50.3869L152.616 26.5025C151.11 19.6204 144.87 14.7007 137.646 14.7007H37.421C30.3758 14.7007 24.2396 19.3851 22.5578 26.0507Z" fill="#5252CC"/>
<path d="M32.4774 68.3891H145.923C154.073 68.3891 160.69 75.0065 160.69 83.156V222.516C160.69 230.211 154.442 236.459 146.747 236.459H31.6539C23.9589 236.459 17.7104 230.211 17.7104 222.516V83.156C17.7104 75.0065 24.3279 68.3891 32.4774 68.3891Z" fill="#1F1F56"/>
<path d="M152.701 98.7358H28.8918V203.003H152.701V98.7358Z" fill="#457F4A"/>
<path d="M30.635 220.893H68.0137" stroke="#4141A3" stroke-width="3.04804" stroke-linecap="round" stroke-linejoin="round"/>
<path d="M108.425 220.893H148.105" stroke="#4141A3" stroke-width="3.04804" stroke-linecap="round" stroke-linejoin="round"/>
<path d="M57.044 245.074H23.9513C22.5086 245.074 21.3391 246.244 21.3391 247.686V262.731C21.3391 264.174 22.5086 265.344 23.9513 265.344H57.044C58.4867 265.344 59.6562 264.174 59.6562 262.731V247.686C59.6562 246.244 58.4867 245.074 57.044 245.074Z" fill="#5252CC"/>
<path d="M72.6982 245.074H105.791C107.232 245.074 108.403 246.245 108.403 247.686V262.731C108.403 264.172 107.232 265.344 105.791 265.344H72.6982C71.257 265.344 70.0859 264.172 70.0859 262.731V247.686C70.0859 246.245 71.257 245.074 72.6982 245.074Z" fill="#5252CC"/>
<path d="M120.718 245.074H153.811C155.252 245.074 156.423 246.245 156.423 247.686V262.731C156.423 264.172 155.252 265.344 153.811 265.344H120.718C119.277 265.344 118.106 264.172 118.106 262.731V247.686C118.106 246.245 119.277 245.074 120.718 245.074Z" fill="#5252CC"/>
<path d="M57.0433 276.367H23.9506C22.5079 276.367 21.3384 277.537 21.3384 278.98V294.025C21.3384 295.467 22.5079 296.637 23.9506 296.637H57.0433C58.486 296.637 59.6555 295.467 59.6555 294.025V278.98C59.6555 277.537 58.486 276.367 57.0433 276.367Z" fill="#5252CC"/>
<path d="M105.791 276.367H72.6979C71.2552 276.367 70.0857 277.537 70.0857 278.98V294.025C70.0857 295.467 71.2552 296.637 72.6979 296.637H105.791C107.233 296.637 108.403 295.467 108.403 294.025V278.98C108.403 277.537 107.233 276.367 105.791 276.367Z" fill="#5252CC"/>
<path d="M120.719 276.367H153.811C155.252 276.367 156.424 277.538 156.424 278.979V294.024C156.424 295.466 155.252 296.637 153.811 296.637H120.719C119.278 296.637 118.106 295.466 118.106 294.024V278.979C118.106 277.538 119.278 276.367 120.719 276.367Z" fill="#5252CC"/>
<path d="M57.0438 306.238H23.9511C22.5084 306.238 21.3389 307.408 21.3389 308.85V323.895C21.3389 325.338 22.5084 326.508 23.9511 326.508H57.0438C58.4865 326.508 59.656 325.338 59.656 323.895V308.85C59.656 307.408 58.4865 306.238 57.0438 306.238Z" fill="#5252CC"/>
<path d="M105.791 306.238H72.6982C71.2555 306.238 70.0859 307.408 70.0859 308.85V323.895C70.0859 325.338 71.2555 326.508 72.6982 326.508H105.791C107.234 326.508 108.403 325.338 108.403 323.895V308.85C108.403 307.408 107.234 306.238 105.791 306.238Z" fill="#5252CC"/>
<path d="M153.811 306.238H120.718C119.276 306.238 118.106 307.408 118.106 308.85V323.895C118.106 325.338 119.276 326.508 120.718 326.508H153.811C155.254 326.508 156.423 325.338 156.423 323.895V308.85C156.423 307.408 155.254 306.238 153.811 306.238Z" fill="#5252CC"/>
<path d="M59.5726 338.454H28.7954C27.4531 338.454 26.365 339.542 26.365 340.884V354.876C26.365 356.218 27.4531 357.306 28.7954 357.306H59.5726C60.9149 357.306 62.003 356.218 62.003 354.876V340.884C62.003 339.542 60.9149 338.454 59.5726 338.454Z" fill="#AA3944"/>
<path d="M104.913 338.454H74.1362C72.794 338.454 71.7058 339.542 71.7058 340.884V354.876C71.7058 356.218 72.794 357.306 74.1362 357.306H104.913C106.256 357.306 107.344 356.218 107.344 354.876V340.884C107.344 339.542 106.256 338.454 104.913 338.454Z" fill="#E5A533"/>
<path d="M149.578 338.454H118.801C117.459 338.454 116.371 339.542 116.371 340.884V354.876C116.371 356.218 117.459 357.306 118.801 357.306H149.578C150.921 357.306 152.009 356.218 152.009 354.876V340.884C152.009 339.542 150.921 338.454 149.578 338.454Z" fill="#457F4A"/>
</svg>
