<svg width="51" height="51" viewBox="0 0 51 51" fill="none" xmlns="http://www.w3.org/2000/svg">
<path d="M25.4802 50.9866C39.3018 50.9866 50.5063 39.782 50.5063 25.9604C50.5063 12.1389 39.3018 0.934326 25.4802 0.934326C11.6587 0.934326 0.454102 12.1389 0.454102 25.9604C0.454102 39.782 11.6587 50.9866 25.4802 50.9866Z" fill="#4971D5"/>
<path d="M34.5326 39.1578C33.9878 39.1595 33.448 39.053 32.9446 38.8446C32.4412 38.6362 31.9841 38.33 31.5999 37.9437L25.4802 31.8259L19.3606 37.9466C18.5827 38.7244 17.5278 39.1614 16.4278 39.1614C15.3278 39.1614 14.2729 38.7244 13.4951 37.9466C12.7172 37.1688 12.2803 36.1138 12.2803 35.0138C12.2803 33.9139 12.7172 32.8589 13.4951 32.0811L19.6147 25.9605L13.4941 19.8408C12.7163 19.063 12.2793 18.008 12.2793 16.908C12.2793 15.808 12.7163 14.7531 13.4941 13.9753C14.2719 13.1975 15.3268 12.7605 16.4268 12.7605C17.5268 12.7605 18.5818 13.1975 19.3596 13.9753L25.4802 20.095L31.5999 13.9743C31.985 13.5892 32.4422 13.2837 32.9454 13.0752C33.4487 12.8668 33.988 12.7595 34.5326 12.7595C35.0773 12.7595 35.6166 12.8668 36.1198 13.0752C36.623 13.2837 37.0803 13.5892 37.4654 13.9743C37.8505 14.3594 38.156 14.8167 38.3645 15.3199C38.5729 15.8231 38.6802 16.3624 38.6802 16.9071C38.6802 17.4517 38.5729 17.991 38.3645 18.4942C38.156 18.9974 37.8505 19.4547 37.4654 19.8398L31.3457 25.9605L37.4664 32.0801C38.0463 32.66 38.4412 33.3988 38.6012 34.2032C38.7612 35.0076 38.679 35.8413 38.365 36.599C38.0511 37.3566 37.5195 38.0041 36.8375 38.4596C36.1555 38.9151 35.3537 39.1581 34.5336 39.1578H34.5326Z" fill="white"/>
</svg>
