<svg width="50" height="50" viewBox="0 0 50 50" fill="none" xmlns="http://www.w3.org/2000/svg">
    <rect width="50" height="50" rx="25" fill="#2C52CD"/>
    <path d="M33.2285 24.7119C33.2285 25.0771 33.0781 25.4424 32.8311 25.6895L27.374 31.125C27.0947 31.3936 26.7725 31.5332 26.4609 31.5332C25.6875 31.5332 25.1611 30.9961 25.1611 30.2871C25.1611 29.9004 25.333 29.5889 25.5801 29.3525L27.2881 27.6338L29.1572 25.9258L27.3203 26.0332H18.1357C17.3193 26.0332 16.7715 25.4961 16.7715 24.7119C16.7715 23.9277 17.3193 23.4014 18.1357 23.4014H27.3203L29.1572 23.5088L27.2881 21.8008L25.5801 20.082C25.333 19.835 25.1611 19.5342 25.1611 19.1367C25.1611 18.4277 25.6875 17.8906 26.4609 17.8906C26.7725 17.8906 27.0947 18.0303 27.374 18.3096L32.8311 23.7451C33.0781 23.9922 33.2285 24.3574 33.2285 24.7119Z"
          fill="white"/>
</svg>
