<svg width="50" height="50" viewBox="0 0 50 50" fill="none" xmlns="http://www.w3.org/2000/svg">
    <rect width="50" height="50" rx="25" fill="#2C52CD"/>
    <path d="M16.7715 24.7119C16.7715 25.0771 16.9219 25.4424 17.1689 25.6895L22.626 31.125C22.9053 31.3936 23.2275 31.5332 23.5391 31.5332C24.3125 31.5332 24.8389 30.9961 24.8389 30.2871C24.8389 29.9004 24.667 29.5889 24.4199 29.3525L22.7119 27.6338L20.8428 25.9258L22.6797 26.0332H31.8643C32.6807 26.0332 33.2285 25.4961 33.2285 24.7119C33.2285 23.9277 32.6807 23.4014 31.8643 23.4014H22.6797L20.8428 23.5088L22.7119 21.8008L24.4199 20.082C24.667 19.835 24.8389 19.5342 24.8389 19.1367C24.8389 18.4277 24.3125 17.8906 23.5391 17.8906C23.2275 17.8906 22.9053 18.0303 22.626 18.3096L17.1689 23.7451C16.9219 23.9922 16.7715 24.3574 16.7715 24.7119Z"
          fill="white"/>
</svg>
