<svg width="166" height="137" viewBox="0 0 166 137" fill="none" xmlns="http://www.w3.org/2000/svg">
<mask id="path-1-inside-1_201_3" fill="white">
<path d="M147.019 42.255L147.019 88.6636L137.229 88.6636L137.229 42.255L125.166 54.3177L118.244 47.3949L142.124 23.5143L166.005 47.3949L159.082 54.3177L147.019 42.255Z"/>
</mask>
<path d="M147.019 42.255L147.019 88.6636L137.229 88.6636L137.229 42.255L125.166 54.3177L118.244 47.3949L142.124 23.5143L166.005 47.3949L159.082 54.3177L147.019 42.255Z" fill="white"/>
<path d="M147.019 42.255L154.798 34.4768L136.019 15.6986L136.019 42.255L147.019 42.255ZM147.019 88.6636L147.019 99.6636L158.019 99.6636L158.019 88.6636L147.019 88.6636ZM137.229 88.6636L126.229 88.6636L126.229 99.6636L137.229 99.6636L137.229 88.6636ZM137.229 42.255L148.229 42.255L148.229 15.6986L129.451 34.4768L137.229 42.255ZM125.166 54.3177L117.388 62.0959L125.166 69.874L132.945 62.0958L125.166 54.3177ZM118.244 47.3949L110.465 39.6167L102.687 47.3949L110.465 55.1731L118.244 47.3949ZM142.124 23.5143L149.902 15.7361L142.124 7.95792L134.346 15.7361L142.124 23.5143ZM166.005 47.3949L173.783 55.1731L181.561 47.3949L173.783 39.6167L166.005 47.3949ZM159.082 54.3177L151.304 62.0959L159.082 69.874L166.86 62.0959L159.082 54.3177ZM147.019 42.255L136.019 42.255L136.019 88.6636L147.019 88.6636L158.019 88.6636L158.019 42.255L147.019 42.255ZM147.019 88.6636L147.019 77.6636L137.229 77.6636L137.229 88.6636L137.229 99.6636L147.019 99.6636L147.019 88.6636ZM137.229 88.6636L148.229 88.6636L148.229 42.255L137.229 42.255L126.229 42.255L126.229 88.6636L137.229 88.6636ZM137.229 42.255L129.451 34.4768L117.388 46.5395L125.166 54.3177L132.945 62.0958L145.007 50.0332L137.229 42.255ZM125.166 54.3177L132.945 46.5395L126.022 39.6167L118.244 47.3949L110.465 55.1731L117.388 62.0959L125.166 54.3177ZM118.244 47.3949L126.022 55.1731L149.902 31.2924L142.124 23.5143L134.346 15.7361L110.465 39.6167L118.244 47.3949ZM142.124 23.5143L134.346 31.2924L158.227 55.1731L166.005 47.3949L173.783 39.6167L149.902 15.7361L142.124 23.5143ZM166.005 47.3949L158.227 39.6167L151.304 46.5395L159.082 54.3177L166.86 62.0959L173.783 55.1731L166.005 47.3949ZM159.082 54.3177L166.86 46.5395L154.798 34.4768L147.019 42.255L139.241 50.0332L151.304 62.0959L159.082 54.3177Z" fill="#F87703" mask="url(#path-1-inside-1_201_3)"/>
<g style="mix-blend-mode:multiply">
<path d="M0.821777 1.65825L2.54678 135.669L75.3998 134.735L100.234 107.583L98.8508 0.39679L0.821777 1.65825ZM37.0393 13.9385C34.752 13.9689 32.8826 12.1375 32.8522 9.85773C32.8218 7.57798 34.6532 5.70099 36.9329 5.6706C39.2127 5.6402 41.0897 7.4716 41.1201 9.75134C41.1505 12.0311 39.3191 13.9081 37.0393 13.9385ZM62.96 13.6041C60.6727 13.6345 58.8033 11.8031 58.7729 9.52337C58.7425 7.24362 60.5739 5.36663 62.8536 5.33624C65.1334 5.30584 67.0104 7.13723 67.0408 9.41698C67.0712 11.6967 65.2398 13.5737 62.96 13.6041Z" fill="#E0BB9B"/>
</g>
<g filter="url(#filter0_d_201_3)">
<path d="M5.35134 0.640137L0.966309 134.666H73.8193L99.0029 107.841L94.9484 55.0719L99.0029 0.640137L5.35134 0.640137ZM37.0243 13.3839C34.7369 13.3839 32.8903 11.5297 32.8903 9.24997C32.8903 6.97023 34.7445 5.11604 37.0243 5.11604C39.304 5.11604 41.1582 6.97023 41.1582 9.24997C41.1582 11.5297 39.304 13.3839 37.0243 13.3839ZM62.945 13.3839C60.6576 13.3839 58.811 11.5297 58.811 9.24997C58.811 6.97023 60.6652 5.11604 62.945 5.11604C65.2247 5.11604 67.0789 6.97023 67.0789 9.24997C67.0789 11.5297 65.2247 13.3839 62.945 13.3839Z" fill="#F0E9E2"/>
</g>
<path d="M33.7493 26.2507H33.3872L32.8876 28.4447H32.0114L32.4314 26.6055C32.4845 26.369 32.5569 26.1952 32.6486 26.0841C32.7404 25.9731 32.8659 25.9007 33.0252 25.8669V25.8307C32.8852 25.7921 32.7717 25.7221 32.6848 25.6207C32.5979 25.5145 32.5304 25.3504 32.4821 25.1283L32.0983 23.3905H32.9166L33.3872 25.5193H33.7493V23.3905H34.5892V25.5193H34.9513L35.4219 23.3905H36.2402L35.8564 25.1356C35.8081 25.3528 35.7405 25.5145 35.6536 25.6207C35.5668 25.7221 35.4533 25.7921 35.3133 25.8307V25.8669C35.4726 25.9007 35.5981 25.9731 35.6899 26.0841C35.7816 26.1952 35.854 26.369 35.9071 26.6055L36.3271 28.4447H35.4509L34.9513 26.2507H34.5892V28.4447H33.7493V26.2507ZM36.4831 23.3905H37.4317V25.4904H38.1196L39.0102 23.3905H39.9805L39.1985 25.2514C39.1164 25.4445 39.0343 25.5845 38.9523 25.6714C38.8702 25.7535 38.7688 25.8066 38.6482 25.8307V25.8669C38.7688 25.8959 38.8678 25.9514 38.945 26.0335C39.0271 26.1107 39.1092 26.2459 39.1912 26.4389L39.6909 27.6627H40.1181V28.4447H39.5822C39.3795 28.4447 39.213 28.3964 39.0826 28.2999C38.9523 28.1985 38.8388 28.032 38.7423 27.8003L38.1196 26.2724H37.4317V28.4447H36.4831V23.3905ZM41.9758 22.9416C42.2654 22.9416 42.4754 23.0091 42.6057 23.1443C42.7361 23.2795 42.8012 23.4532 42.8012 23.6657V24.0277C42.8012 24.1532 42.7868 24.2642 42.7578 24.3608C42.7336 24.4525 42.7023 24.5346 42.6637 24.607C42.625 24.6794 42.5816 24.7446 42.5333 24.8025C42.485 24.8604 42.4392 24.9159 42.3957 24.969C42.3137 25.0656 42.2557 25.1501 42.222 25.2225C42.193 25.29 42.1785 25.3625 42.1785 25.4397C42.1785 25.7293 42.4585 25.8742 43.0185 25.8742H43.6484V26.5114H43.0185C42.4585 26.5114 42.1785 26.6562 42.1785 26.9458C42.1785 27.0231 42.193 27.0979 42.222 27.1703C42.2557 27.2379 42.3137 27.3199 42.3957 27.4165C42.4392 27.4696 42.485 27.5251 42.5333 27.583C42.5816 27.641 42.625 27.7061 42.6637 27.7785C42.7023 27.8509 42.7336 27.9354 42.7578 28.032C42.7868 28.1237 42.8012 28.2323 42.8012 28.3578V28.7199C42.8012 28.9323 42.7361 29.106 42.6057 29.2412C42.4754 29.3764 42.2654 29.444 41.9758 29.444H40.6941V28.8068H42.0482V28.4013C42.0482 28.213 42.0192 28.0682 41.9613 27.9668C41.9033 27.8654 41.8358 27.7665 41.7585 27.6699C41.6765 27.5685 41.5992 27.4599 41.5268 27.3441C41.4544 27.2282 41.4182 27.0931 41.4182 26.9386C41.4182 26.7358 41.4882 26.5741 41.6282 26.4534C41.7682 26.3279 41.9758 26.2483 42.2509 26.2145V26.171C41.9758 26.1372 41.7682 26.06 41.6282 25.9393C41.4882 25.8138 41.4182 25.6497 41.4182 25.4469C41.4182 25.2925 41.4544 25.1573 41.5268 25.0414C41.5992 24.9256 41.6765 24.817 41.7585 24.7156C41.8358 24.619 41.9033 24.5201 41.9613 24.4187C42.0192 24.3173 42.0482 24.1725 42.0482 23.9843V23.5788H40.6941V22.9416H41.9758ZM47.1933 24.7084H48.1346L46.3461 29.1109C46.2447 29.3667 46.1095 29.5598 45.9406 29.6902C45.7716 29.8253 45.5327 29.8929 45.2237 29.8929H44.5431V29.1616H45.4337L45.7161 28.4085L44.21 24.7084H45.1947L45.7668 26.2724L46.165 27.4599H46.2157L46.614 26.2724L47.1933 24.7084ZM50.3181 28.5316C50.0333 28.5316 49.7774 28.4857 49.5506 28.394C49.3237 28.3023 49.1306 28.172 48.9713 28.003C48.8168 27.834 48.6961 27.6289 48.6092 27.3875C48.5272 27.1462 48.4861 26.8758 48.4861 26.5765C48.4861 26.2772 48.5272 26.0069 48.6092 25.7655C48.6961 25.5242 48.8168 25.319 48.9713 25.1501C49.1306 24.9811 49.3213 24.8508 49.5433 24.759C49.7702 24.6673 50.0261 24.6215 50.3109 24.6215C50.7067 24.6215 51.0253 24.7035 51.2667 24.8677C51.508 25.0318 51.6915 25.249 51.817 25.5193L51.1001 25.9104C51.0326 25.7511 50.936 25.6231 50.8105 25.5266C50.6898 25.4252 50.5233 25.3745 50.3109 25.3745C50.0357 25.3745 49.8233 25.4542 49.6737 25.6135C49.5288 25.7728 49.4564 25.99 49.4564 26.2652V26.8879C49.4564 27.1582 49.5288 27.3754 49.6737 27.5396C49.8233 27.6989 50.0405 27.7785 50.3254 27.7785C50.5474 27.7785 50.7236 27.7278 50.8539 27.6265C50.9891 27.5251 51.0977 27.3899 51.1798 27.221L51.8749 27.6337C51.7494 27.8992 51.5587 28.1164 51.3029 28.2854C51.0519 28.4495 50.7236 28.5316 50.3181 28.5316ZM52.1685 27.7134H52.6609C52.7189 27.641 52.7695 27.5541 52.813 27.4527C52.8613 27.3513 52.8999 27.2306 52.9289 27.0906C52.9626 26.9506 52.9868 26.7865 53.0013 26.5983C53.0206 26.41 53.0302 26.1928 53.0302 25.9466V24.7084H55.7746V28.4447H54.8477V25.4397H53.8774V25.9683C53.8774 26.3014 53.8629 26.5886 53.834 26.83C53.8098 27.0713 53.7736 27.2789 53.7254 27.4527C53.6819 27.6216 53.6288 27.7616 53.5661 27.8727C53.5081 27.9789 53.4454 28.0682 53.3778 28.1406C53.2571 28.2661 53.1195 28.353 52.9651 28.4013C52.8106 28.4495 52.6368 28.4737 52.4437 28.4737H52.1685V27.7134ZM59.1963 24.7084H60.1376L58.3491 29.1109C58.2477 29.3667 58.1126 29.5598 57.9436 29.6902C57.7746 29.8253 57.5357 29.8929 57.2267 29.8929H56.5461V29.1616H57.4367L57.7191 28.4085L56.213 24.7084H57.1978L57.7698 26.2724L58.1681 27.4599H58.2188L58.617 26.2724L59.1963 24.7084ZM60.9164 24.7084H63.6969V25.4397H61.8432V28.4447H60.9164V24.7084ZM64.5554 24.7084H65.4605V26.1203L65.3808 27.1775H65.4243L66.9304 24.7084H67.7993V28.4447H66.8942V27.0327L66.9738 25.9755H66.9304L65.4243 28.4447H64.5554V24.7084Z" fill="#2C52CD"/>
<path d="M37.7795 60.2344V58.0136H32.4661V56.1711L37.1544 48.7521H39.8358V56.3357H41.3821V58.0136H39.8358V60.2344H37.7795ZM34.2262 56.3357H37.7795V50.8577H37.6479L34.2262 56.3357ZM49.6163 50.6274H44.3522L44.0726 54.4768H44.2042C44.3358 54.2355 44.4784 54.0162 44.6319 53.8188C44.7854 53.6104 44.9609 53.4349 45.1583 53.2923C45.3667 53.1498 45.597 53.0401 45.8492 52.9633C46.1124 52.8866 46.414 52.8482 46.754 52.8482C47.2365 52.8482 47.6917 52.9304 48.1194 53.0949C48.5471 53.2594 48.9199 53.4952 49.238 53.8023C49.556 54.1094 49.8028 54.4877 49.9783 54.9374C50.1647 55.387 50.2579 55.897 50.2579 56.4673C50.2579 57.0375 50.1592 57.5639 49.9618 58.0465C49.7754 58.529 49.4957 58.9513 49.1228 59.3132C48.7609 59.6641 48.3113 59.9383 47.7739 60.1357C47.2475 60.3331 46.6388 60.4318 45.9479 60.4318C45.4105 60.4318 44.928 60.3715 44.5003 60.2508C44.0836 60.1412 43.7162 59.9876 43.3981 59.7902C43.0801 59.5928 42.8004 59.368 42.5592 59.1158C42.3179 58.8525 42.1095 58.5839 41.934 58.3097L43.4968 57.0759C43.6284 57.2953 43.771 57.5036 43.9245 57.701C44.089 57.8875 44.27 58.052 44.4674 58.1945C44.6648 58.3371 44.8841 58.4523 45.1254 58.54C45.3776 58.6168 45.6628 58.6551 45.9808 58.6551C46.6388 58.6551 47.1378 58.4797 47.4778 58.1287C47.8287 57.7668 48.0042 57.2733 48.0042 56.6482V56.5166C48.0042 55.9134 47.8287 55.4419 47.4778 55.1019C47.1269 54.7619 46.6334 54.5919 45.9973 54.5919C45.5147 54.5919 45.1199 54.6851 44.8129 54.8716C44.5167 55.047 44.2755 55.239 44.089 55.4473L42.3289 55.2006L42.7566 48.7521H49.6163V50.6274ZM55.1198 60.4318C54.3741 60.4318 53.727 60.3002 53.1787 60.037C52.6303 59.7628 52.1752 59.3735 51.8133 58.869C51.4624 58.3645 51.1991 57.7449 51.0237 57.0101C50.8592 56.2753 50.7769 55.4364 50.7769 54.4932C50.7769 53.561 50.8592 52.7275 51.0237 51.9928C51.1991 51.247 51.4624 50.6219 51.8133 50.1174C52.1752 49.613 52.6303 49.2291 53.1787 48.9659C53.727 48.6917 54.3741 48.5547 55.1198 48.5547C56.6113 48.5547 57.708 49.0756 58.4099 50.1174C59.1117 51.1593 59.4627 52.6179 59.4627 54.4932C59.4627 56.3686 59.1117 57.8271 58.4099 58.869C57.708 59.9109 56.6113 60.4318 55.1198 60.4318ZM55.1198 58.7045C55.9094 58.7045 56.4632 58.4248 56.7813 57.8655C57.1103 57.2953 57.2748 56.5111 57.2748 55.5131V53.4733C57.2748 52.4753 57.1103 51.6967 56.7813 51.1374C56.4632 50.5671 55.9094 50.2819 55.1198 50.2819C54.3302 50.2819 53.7709 50.5671 53.4419 51.1374C53.1238 51.6967 52.9648 52.4753 52.9648 53.4733V55.5131C52.9648 56.5111 53.1238 57.2953 53.4419 57.8655C53.7709 58.4248 54.3302 58.7045 55.1198 58.7045ZM55.1198 55.4638C54.736 55.4638 54.4673 55.387 54.3137 55.2335C54.1712 55.0799 54.0999 54.8935 54.0999 54.6742V54.3123C54.0999 54.0929 54.1712 53.9065 54.3137 53.753C54.4673 53.5994 54.736 53.5226 55.1198 53.5226C55.5036 53.5226 55.7669 53.5994 55.9094 53.753C56.063 53.9065 56.1397 54.0929 56.1397 54.3123V54.6742C56.1397 54.8935 56.063 55.0799 55.9094 55.2335C55.7669 55.387 55.5036 55.4638 55.1198 55.4638ZM63.5679 60.4153C62.7125 60.3495 61.9777 60.1576 61.3635 59.8396C60.7604 59.5106 60.2668 59.0883 59.883 58.5729L61.1826 57.2404C61.9064 58.052 62.7399 58.5126 63.683 58.6222V55.217L63.3047 55.1512C62.7673 55.0525 62.3012 54.9045 61.9064 54.7071C61.5226 54.5097 61.2045 54.2684 60.9523 53.9833C60.711 53.6981 60.53 53.3801 60.4094 53.0291C60.2997 52.6782 60.2449 52.2998 60.2449 51.8941C60.2449 50.9619 60.53 50.2107 61.1003 49.6404C61.6816 49.0701 62.5041 48.7246 63.5679 48.604V46.8932H65.18V48.5876C65.8929 48.6753 66.5015 48.8562 67.006 49.1304C67.5214 49.4046 67.9546 49.761 68.3056 50.1997L67.006 51.5322C66.5015 50.929 65.8545 50.5616 65.0649 50.43V53.5555L65.4761 53.6213C66.5509 53.8188 67.3295 54.2026 67.8121 54.7729C68.2946 55.3322 68.5359 56.0231 68.5359 56.8456C68.5359 57.7778 68.2452 58.5564 67.664 59.1816C67.0937 59.7957 66.2657 60.185 65.18 60.3495V62.0933H63.5679V60.4153ZM62.2683 51.8283C62.2683 52.234 62.378 52.5466 62.5973 52.7659C62.8166 52.9853 63.1785 53.1553 63.683 53.2759V50.3806C62.7399 50.5122 62.2683 50.9948 62.2683 51.8283ZM66.5289 56.9772C66.5289 56.5385 66.4138 56.2095 66.1835 55.9902C65.9532 55.7599 65.5803 55.5899 65.0649 55.4802V58.6058C65.5584 58.5181 65.9258 58.3371 66.167 58.0629C66.4083 57.7888 66.5289 57.4269 66.5289 56.9772Z" fill="#2C52CD"/>
<path d="M25.7203 69.2498H28.7108V70.0318H26.6689V74.304H25.7203V69.2498ZM32.4439 74.304C32.217 74.304 32.0408 74.2485 31.9153 74.1375C31.7946 74.0216 31.7222 73.8623 31.6981 73.6596H31.6619C31.5943 73.8913 31.4616 74.0723 31.2636 74.2026C31.0657 74.3282 30.8219 74.3909 30.5323 74.3909C30.1558 74.3909 29.8565 74.2919 29.6344 74.094C29.4124 73.8961 29.3013 73.6209 29.3013 73.2686C29.3013 72.5155 29.8541 72.139 30.9595 72.139H31.6184V71.8928C31.6184 71.6562 31.5605 71.4776 31.4447 71.3569C31.3288 71.2363 31.1405 71.1759 30.8799 71.1759C30.6433 71.1759 30.4526 71.2218 30.3078 71.3135C30.163 71.4052 30.0399 71.5235 29.9385 71.6683L29.4099 71.2194C29.5258 71.0118 29.7117 70.838 29.9675 70.698C30.2282 70.5532 30.5637 70.4808 30.974 70.4808C31.4664 70.4808 31.8502 70.5966 32.1253 70.8283C32.4053 71.0552 32.5453 71.3956 32.5453 71.8493V73.6089H32.987V74.304H32.4439ZM30.8437 73.7537C31.0657 73.7537 31.2492 73.703 31.394 73.6016C31.5436 73.4954 31.6184 73.353 31.6184 73.1744V72.6748H30.9812C30.4744 72.6748 30.2209 72.8341 30.2209 73.1527V73.2975C30.2209 73.4472 30.2765 73.5606 30.3875 73.6378C30.4985 73.7151 30.6506 73.7537 30.8437 73.7537ZM34.9967 74.3909C34.6009 74.3909 34.2582 74.333 33.9685 74.2171C33.6837 74.0964 33.4568 73.9202 33.2879 73.6885L33.8454 73.1817C33.9854 73.3506 34.1423 73.4761 34.3161 73.5582C34.4947 73.6403 34.7119 73.6813 34.9678 73.6813C35.2429 73.6813 35.4433 73.6378 35.5688 73.551C35.6943 73.4641 35.757 73.3482 35.757 73.2034V73.1455C35.757 72.8751 35.5929 72.74 35.2647 72.74H34.345V72.0955H35.1705C35.3491 72.0955 35.4795 72.0593 35.5615 71.9869C35.6436 71.9145 35.6846 71.8131 35.6846 71.6828V71.6321C35.6846 71.5066 35.6267 71.4028 35.5108 71.3207C35.395 71.2338 35.2091 71.1904 34.9533 71.1904C34.7168 71.1904 34.5164 71.229 34.3523 71.3062C34.1882 71.3835 34.0433 71.4993 33.9178 71.6538L33.3748 71.1832C33.563 70.9611 33.7875 70.7897 34.0482 70.669C34.3088 70.5435 34.6395 70.4808 35.0402 70.4808C35.5519 70.4808 35.9429 70.5749 36.2132 70.7632C36.4884 70.9514 36.626 71.2 36.626 71.509C36.626 71.7311 36.5584 71.9121 36.4232 72.0521C36.288 72.1921 36.107 72.2838 35.8801 72.3272V72.3634C36.1263 72.402 36.3242 72.4986 36.4739 72.6531C36.6235 72.8027 36.6984 73.0006 36.6984 73.2468C36.6984 73.5944 36.5487 73.872 36.2494 74.0795C35.955 74.2871 35.5374 74.3909 34.9967 74.3909ZM37.5351 70.5677H39.606C39.9391 70.5677 40.1949 70.657 40.3735 70.8356C40.557 71.0094 40.6487 71.2363 40.6487 71.5162C40.6487 71.97 40.3904 72.2427 39.8739 72.3345V72.3634C40.1491 72.3876 40.3687 72.4672 40.5328 72.6024C40.7018 72.7375 40.7863 72.9451 40.7863 73.2251C40.7863 73.3796 40.7597 73.522 40.7066 73.6523C40.6535 73.7827 40.5763 73.8961 40.4749 73.9927C40.3784 74.0892 40.2577 74.1664 40.1129 74.2244C39.968 74.2775 39.8039 74.304 39.6205 74.304H37.5351V70.5677ZM39.4394 73.6306C39.7098 73.6306 39.8449 73.5051 39.8449 73.2541V73.0875C39.8449 72.8365 39.7098 72.711 39.4394 72.711H38.4402V73.6306H39.4394ZM39.3453 72.1245C39.466 72.1245 39.5553 72.0931 39.6132 72.0303C39.676 71.9628 39.7074 71.8735 39.7074 71.7624V71.6031C39.7074 71.4921 39.676 71.4052 39.6132 71.3425C39.5553 71.2749 39.466 71.2411 39.3453 71.2411H38.4402V72.1245H39.3453ZM43.0712 74.3909C42.7864 74.3909 42.5305 74.345 42.3036 74.2533C42.0816 74.1616 41.8909 74.0313 41.7316 73.8623C41.5771 73.6934 41.4564 73.4882 41.3695 73.2468C41.2875 73.0055 41.2464 72.7351 41.2464 72.4358C41.2464 72.1365 41.2875 71.8662 41.3695 71.6249C41.4564 71.3835 41.5771 71.1783 41.7316 71.0094C41.8909 70.8404 42.0816 70.7101 42.3036 70.6184C42.5305 70.5266 42.7864 70.4808 43.0712 70.4808C43.3512 70.4808 43.6046 70.5266 43.8315 70.6184C44.0584 70.7101 44.249 70.8404 44.4035 71.0094C44.5628 71.1783 44.6835 71.3835 44.7656 71.6249C44.8525 71.8662 44.8959 72.1365 44.8959 72.4358C44.8959 72.7351 44.8525 73.0055 44.7656 73.2468C44.6835 73.4882 44.5628 73.6934 44.4035 73.8623C44.249 74.0313 44.0584 74.1616 43.8315 74.2533C43.6046 74.345 43.3512 74.3909 43.0712 74.3909ZM43.0712 73.6813C43.3367 73.6813 43.5467 73.6016 43.7011 73.4423C43.8556 73.2782 43.9328 73.0393 43.9328 72.7255V72.1462C43.9328 71.8324 43.8556 71.5959 43.7011 71.4366C43.5467 71.2725 43.3367 71.1904 43.0712 71.1904C42.8057 71.1904 42.5957 71.2725 42.4412 71.4366C42.2867 71.5959 42.2095 71.8324 42.2095 72.1462V72.7255C42.2095 73.0393 42.2867 73.2782 42.4412 73.4423C42.5957 73.6016 42.8057 73.6813 43.0712 73.6813ZM45.0013 73.5727H45.4285C45.5588 73.3651 45.6626 73.1093 45.7398 72.8051C45.8219 72.501 45.8629 72.1414 45.8629 71.7262V70.5677H48.4987V73.5727H49.0852V75.3178H48.2452V74.304H45.8412V75.3178H45.0013V73.5727ZM47.5935 73.5727V71.299H46.7101V71.7552C46.7101 72.1559 46.6788 72.5058 46.616 72.8051C46.5581 73.1044 46.4736 73.3603 46.3626 73.5727H47.5935ZM52.449 74.304C52.2221 74.304 52.0459 74.2485 51.9204 74.1375C51.7997 74.0216 51.7273 73.8623 51.7032 73.6596H51.667C51.5994 73.8913 51.4666 74.0723 51.2687 74.2026C51.0708 74.3282 50.827 74.3909 50.5374 74.3909C50.1608 74.3909 49.8615 74.2919 49.6395 74.094C49.4174 73.8961 49.3064 73.6209 49.3064 73.2686C49.3064 72.5155 49.8591 72.139 50.9646 72.139H51.6235V71.8928C51.6235 71.6562 51.5656 71.4776 51.4497 71.3569C51.3339 71.2363 51.1456 71.1759 50.8849 71.1759C50.6484 71.1759 50.4577 71.2218 50.3129 71.3135C50.1681 71.4052 50.045 71.5235 49.9436 71.6683L49.415 71.2194C49.5309 71.0118 49.7167 70.838 49.9726 70.698C50.2332 70.5532 50.5687 70.4808 50.9791 70.4808C51.4714 70.4808 51.8552 70.5966 52.1304 70.8283C52.4104 71.0552 52.5504 71.3956 52.5504 71.8493V73.6089H52.9921V74.304H52.449ZM50.8487 73.7537C51.0708 73.7537 51.2542 73.703 51.399 73.6016C51.5487 73.4954 51.6235 73.353 51.6235 73.1744V72.6748H50.9863C50.4794 72.6748 50.226 72.8341 50.226 73.1527V73.2975C50.226 73.4472 50.2815 73.5606 50.3925 73.6378C50.5036 73.7151 50.6556 73.7537 50.8487 73.7537ZM54.6108 73.1237H55.8562L54.9077 75.3757H54.2053L54.6108 73.1237ZM63.221 74.3909C62.9362 74.3909 62.6804 74.345 62.4535 74.2533C62.2266 74.1616 62.0335 74.0313 61.8742 73.8623C61.7197 73.6934 61.5991 73.4882 61.5122 73.2468C61.4301 73.0055 61.3891 72.7351 61.3891 72.4358C61.3891 72.1365 61.4301 71.8662 61.5122 71.6249C61.5991 71.3835 61.7197 71.1783 61.8742 71.0094C62.0335 70.8404 62.2242 70.7101 62.4463 70.6184C62.6731 70.5266 62.929 70.4808 63.2138 70.4808C63.6096 70.4808 63.9283 70.5628 64.1696 70.727C64.411 70.8911 64.5944 71.1083 64.7199 71.3787L64.0031 71.7697C63.9355 71.6104 63.8389 71.4824 63.7134 71.3859C63.5928 71.2845 63.4262 71.2338 63.2138 71.2338C62.9386 71.2338 62.7262 71.3135 62.5766 71.4728C62.4318 71.6321 62.3594 71.8493 62.3594 72.1245V72.7472C62.3594 73.0175 62.4318 73.2348 62.5766 73.3989C62.7262 73.5582 62.9435 73.6378 63.2283 73.6378C63.4503 73.6378 63.6265 73.5872 63.7569 73.4858C63.892 73.3844 64.0007 73.2492 64.0827 73.0803L64.7779 73.493C64.6523 73.7585 64.4617 73.9758 64.2058 74.1447C63.9548 74.3088 63.6265 74.3909 63.221 74.3909ZM65.5421 70.5677H67.6131C67.9462 70.5677 68.202 70.657 68.3806 70.8356C68.5641 71.0094 68.6558 71.2363 68.6558 71.5162C68.6558 71.97 68.3975 72.2427 67.881 72.3345V72.3634C68.1561 72.3876 68.3758 72.4672 68.5399 72.6024C68.7089 72.7375 68.7934 72.9451 68.7934 73.2251C68.7934 73.3796 68.7668 73.522 68.7137 73.6523C68.6606 73.7827 68.5834 73.8961 68.482 73.9927C68.3854 74.0892 68.2648 74.1664 68.1199 74.2244C67.9751 74.2775 67.811 74.304 67.6276 74.304H65.5421V70.5677ZM67.4465 73.6306C67.7169 73.6306 67.852 73.5051 67.852 73.2541V73.0875C67.852 72.8365 67.7169 72.711 67.4465 72.711H66.4473V73.6306H67.4465ZM67.3524 72.1245C67.4731 72.1245 67.5624 72.0931 67.6203 72.0303C67.6831 71.9628 67.7144 71.8735 67.7144 71.7624V71.6031C67.7144 71.4921 67.6831 71.4052 67.6203 71.3425C67.5624 71.2749 67.4731 71.2411 67.3524 71.2411H66.4473V72.1245H67.3524ZM71.1651 74.3909C70.8658 74.3909 70.6003 74.345 70.3686 74.2533C70.1369 74.1616 69.9414 74.0313 69.7821 73.8623C69.6276 73.6934 69.5094 73.4906 69.4273 73.2541C69.3452 73.0127 69.3042 72.7424 69.3042 72.4431C69.3042 72.139 69.3452 71.8662 69.4273 71.6249C69.5142 71.3835 69.6349 71.1783 69.7894 71.0094C69.9438 70.8404 70.1297 70.7101 70.3469 70.6184C70.569 70.5266 70.8176 70.4808 71.0927 70.4808C71.3631 70.4808 71.6068 70.5266 71.8241 70.6184C72.0413 70.7052 72.2247 70.8308 72.3744 70.9949C72.5289 71.159 72.6471 71.3569 72.7292 71.5886C72.8113 71.8204 72.8523 72.0762 72.8523 72.3562V72.6603H70.2311V72.7544C70.2311 73.0248 70.3155 73.2444 70.4845 73.4134C70.6534 73.5775 70.89 73.6596 71.1941 73.6596C71.4258 73.6596 71.6237 73.6137 71.7879 73.522C71.9568 73.4254 72.0968 73.2999 72.2078 73.1455L72.7364 73.6741C72.6013 73.872 72.4033 74.0409 72.1427 74.1809C71.8868 74.3209 71.561 74.3909 71.1651 74.3909ZM71.1 71.1614C70.8393 71.1614 70.6293 71.2435 70.47 71.4076C70.3107 71.5717 70.2311 71.789 70.2311 72.0593V72.11H71.9254V72.0448C71.9254 71.7745 71.8506 71.5597 71.701 71.4004C71.5562 71.2411 71.3558 71.1614 71.1 71.1614ZM74.6158 71.299H73.3487V70.5677H76.8099V71.299H75.5427V74.304H74.6158V71.299Z" fill="#2C52CD"/>
<path d="M99.0029 107.841L73.8193 134.666L73.9789 110.182L99.0029 107.841Z" fill="#E0BB9B"/>
<defs>
<filter id="filter0_d_201_3" x="0.966309" y="0.640137" width="98.0366" height="136.259" filterUnits="userSpaceOnUse" color-interpolation-filters="sRGB">
<feFlood flood-opacity="0" result="BackgroundImageFix"/>
<feColorMatrix in="SourceAlpha" type="matrix" values="0 0 0 0 0 0 0 0 0 0 0 0 0 0 0 0 0 0 127 0" result="hardAlpha"/>
<feOffset dy="2.23261"/>
<feComposite in2="hardAlpha" operator="out"/>
<feColorMatrix type="matrix" values="0 0 0 0 0.375248 0 0 0 0 0.523796 0 0 0 0 0.587459 0 0 0 1 0"/>
<feBlend mode="normal" in2="BackgroundImageFix" result="effect1_dropShadow_201_3"/>
<feBlend mode="normal" in="SourceGraphic" in2="effect1_dropShadow_201_3" result="shape"/>
</filter>
</defs>
</svg>
