<svg width="158" height="137" viewBox="0 0 158 137" fill="none" xmlns="http://www.w3.org/2000/svg">
<mask id="path-1-inside-1_201_2" fill="white">
<path d="M19.1715 67.9229L19.1715 21.5143L28.9618 21.5143L28.9618 67.9229L41.0245 55.8602L47.9473 62.783L24.0667 86.6636L0.186026 62.783L7.10881 55.8602L19.1715 67.9229Z"/>
</mask>
<path d="M19.1715 67.9229L19.1715 21.5143L28.9618 21.5143L28.9618 67.9229L41.0245 55.8602L47.9473 62.783L24.0667 86.6636L0.186026 62.783L7.10881 55.8602L19.1715 67.9229Z" fill="white"/>
<path d="M19.1715 67.9229L11.3933 75.7011L30.1715 94.4793L30.1715 67.9229L19.1715 67.9229ZM19.1715 21.5143L19.1715 10.5143L8.17151 10.5143L8.1715 21.5143L19.1715 21.5143ZM28.9618 21.5143L39.9618 21.5143L39.9618 10.5143L28.9618 10.5143L28.9618 21.5143ZM28.9618 67.9229L17.9618 67.9229L17.9618 94.4793L36.74 75.7011L28.9618 67.9229ZM41.0245 55.8602L48.8027 48.0821L41.0245 40.3039L33.2463 48.0821L41.0245 55.8602ZM47.9473 62.783L55.7254 70.5612L63.5036 62.783L55.7254 55.0048L47.9473 62.783ZM24.0667 86.6636L16.2885 94.4418L24.0667 102.22L31.8448 94.4418L24.0667 86.6636ZM0.186026 62.783L-7.59215 55.0048L-15.3703 62.783L-7.59215 70.5612L0.186026 62.783ZM7.10881 55.8602L14.887 48.0821L7.10881 40.3039L-0.66937 48.0821L7.10881 55.8602ZM19.1715 67.9229L30.1715 67.9229L30.1715 21.5143L19.1715 21.5143L8.1715 21.5143L8.1715 67.9229L19.1715 67.9229ZM19.1715 21.5143L19.1715 32.5143L28.9618 32.5143L28.9618 21.5143L28.9618 10.5143L19.1715 10.5143L19.1715 21.5143ZM28.9618 21.5143L17.9618 21.5143L17.9618 67.9229L28.9618 67.9229L39.9618 67.9229L39.9618 21.5143L28.9618 21.5143ZM28.9618 67.9229L36.74 75.7011L48.8027 63.6384L41.0245 55.8602L33.2463 48.0821L21.1836 60.1448L28.9618 67.9229ZM41.0245 55.8602L33.2463 63.6384L40.1691 70.5612L47.9473 62.783L55.7254 55.0048L48.8027 48.0821L41.0245 55.8602ZM47.9473 62.783L40.1691 55.0048L16.2885 78.8855L24.0667 86.6636L31.8448 94.4418L55.7254 70.5612L47.9473 62.783ZM24.0667 86.6636L31.8448 78.8855L7.9642 55.0048L0.186026 62.783L-7.59215 70.5612L16.2885 94.4418L24.0667 86.6636ZM0.186026 62.783L7.9642 70.5612L14.887 63.6384L7.10881 55.8602L-0.66937 48.0821L-7.59215 55.0048L0.186026 62.783ZM7.10881 55.8602L-0.669371 63.6384L11.3933 75.7011L19.1715 67.9229L26.9497 60.1448L14.887 48.0821L7.10881 55.8602Z" fill="url(#paint0_linear_201_2)" mask="url(#path-1-inside-1_201_2)"/>
<g style="mix-blend-mode:multiply">
<path d="M57.9282 1.72783L59.6532 135.739L132.506 134.804L157.34 107.652L155.957 0.46637L57.9282 1.72783ZM94.1458 14.008C91.8584 14.0384 89.989 12.2071 89.9586 9.92731C89.9282 7.64756 91.7596 5.77057 94.0394 5.74018C96.3191 5.70978 98.1961 7.54118 98.2265 9.82092C98.2569 12.1007 96.4255 13.9777 94.1458 14.008ZM120.066 13.6737C117.779 13.7041 115.91 11.8727 115.879 9.59295C115.849 7.3132 117.68 5.43621 119.96 5.40582C122.24 5.37542 124.117 7.20681 124.147 9.48656C124.178 11.7663 122.346 13.6433 120.066 13.6737Z" fill="#E7EFF2"/>
</g>
<g filter="url(#filter0_d_201_2)">
<path d="M58.0723 0.709717L58.0723 134.736H130.925L156.109 107.911V0.709717L58.0723 0.709717ZM94.1302 13.4535C91.8429 13.4535 89.9963 11.5993 89.9963 9.31955C89.9963 7.03981 91.8505 5.18562 94.1302 5.18562C96.41 5.18562 98.2642 7.03981 98.2642 9.31955C98.2642 11.5993 96.41 13.4535 94.1302 13.4535ZM120.051 13.4535C117.764 13.4535 115.917 11.5993 115.917 9.31955C115.917 7.03981 117.771 5.18562 120.051 5.18562C122.331 5.18562 124.185 7.03981 124.185 9.31955C124.185 11.5993 122.331 13.4535 120.051 13.4535Z" fill="#F7FAFB"/>
</g>
<path d="M102.858 26.3203H102.496L101.997 28.5143H101.12L101.54 26.6751C101.593 26.4385 101.666 26.2647 101.758 26.1537C101.849 26.0427 101.975 25.9703 102.134 25.9365V25.9003C101.994 25.8617 101.881 25.7917 101.794 25.6903C101.707 25.5841 101.639 25.42 101.591 25.1979L101.207 23.4601H102.026L102.496 25.5889H102.858V23.4601H103.698V25.5889H104.06L104.531 23.4601H105.349L104.965 25.2052C104.917 25.4224 104.85 25.5841 104.763 25.6903C104.676 25.7917 104.562 25.8617 104.422 25.9003V25.9365C104.582 25.9703 104.707 26.0427 104.799 26.1537C104.891 26.2647 104.963 26.4385 105.016 26.6751L105.436 28.5143H104.56L104.06 26.3203H103.698V28.5143H102.858V26.3203ZM105.592 23.4601H106.541V25.56H107.229L108.119 23.4601H109.089L108.307 25.321C108.225 25.5141 108.143 25.6541 108.061 25.741C107.979 25.823 107.878 25.8761 107.757 25.9003V25.9365C107.878 25.9655 107.977 26.021 108.054 26.103C108.136 26.1803 108.218 26.3154 108.3 26.5085L108.8 27.7323H109.227V28.5143H108.691C108.488 28.5143 108.322 28.466 108.192 28.3695C108.061 28.2681 107.948 28.1015 107.851 27.8698L107.229 26.342H106.541V28.5143H105.592V23.4601ZM113.351 28.5143H112.28L111.729 27.5078L111.287 26.6244H111.23L110.773 27.5078L110.209 28.5143H109.209L110.694 25.9075L109.303 23.4601H110.382L110.846 24.3145L111.287 25.1907H111.338L111.787 24.3145L112.272 23.4601H113.272L111.874 25.922L113.351 28.5143Z" fill="#2C52CD"/>
<path d="M94.886 60.304V58.0832H89.5725V56.2408L94.2608 48.8217H96.9422V56.4053H98.4886V58.0832H96.9422V60.304H94.886ZM91.3327 56.4053H94.886V50.9273H94.7544L91.3327 56.4053ZM106.723 50.697H101.459L101.179 54.5464H101.311C101.442 54.3051 101.585 54.0858 101.738 53.8884C101.892 53.68 102.067 53.5046 102.265 53.362C102.473 53.2194 102.703 53.1097 102.956 53.033C103.219 52.9562 103.52 52.9178 103.86 52.9178C104.343 52.9178 104.798 53.0001 105.226 53.1646C105.654 53.3291 106.026 53.5649 106.344 53.8719C106.662 54.179 106.909 54.5574 107.085 55.007C107.271 55.4567 107.364 55.9666 107.364 56.5369C107.364 57.1072 107.266 57.6336 107.068 58.1161C106.882 58.5987 106.602 59.0209 106.229 59.3828C105.867 59.7337 105.418 60.0079 104.88 60.2053C104.354 60.4027 103.745 60.5014 103.054 60.5014C102.517 60.5014 102.034 60.4411 101.607 60.3205C101.19 60.2108 100.823 60.0573 100.505 59.8599C100.187 59.6625 99.9069 59.4376 99.6656 59.1854C99.4243 58.9222 99.216 58.6535 99.0405 58.3793L100.603 57.1456C100.735 57.3649 100.877 57.5733 101.031 57.7707C101.195 57.9571 101.376 58.1216 101.574 58.2642C101.771 58.4067 101.991 58.5219 102.232 58.6096C102.484 58.6864 102.769 58.7248 103.087 58.7248C103.745 58.7248 104.244 58.5493 104.584 58.1984C104.935 57.8365 105.111 57.343 105.111 56.7178V56.5862C105.111 55.9831 104.935 55.5115 104.584 55.1715C104.233 54.8315 103.74 54.6616 103.104 54.6616C102.621 54.6616 102.226 54.7548 101.919 54.9412C101.623 55.1167 101.382 55.3086 101.195 55.517L99.4353 55.2702L99.863 48.8217H106.723V50.697ZM112.226 60.5014C111.481 60.5014 110.833 60.3698 110.285 60.1066C109.737 59.8324 109.282 59.4431 108.92 58.9386C108.569 58.4342 108.306 57.8145 108.13 57.0798C107.966 56.345 107.883 55.506 107.883 54.5629C107.883 53.6307 107.966 52.7972 108.13 52.0624C108.306 51.3167 108.569 50.6915 108.92 50.1871C109.282 49.6826 109.737 49.2988 110.285 49.0356C110.833 48.7614 111.481 48.6243 112.226 48.6243C113.718 48.6243 114.814 49.1452 115.516 50.1871C116.218 51.2289 116.569 52.6875 116.569 54.5629C116.569 56.4382 116.218 57.8968 115.516 58.9386C114.814 59.9805 113.718 60.5014 112.226 60.5014ZM112.226 58.7741C113.016 58.7741 113.57 58.4945 113.888 57.9352C114.217 57.3649 114.381 56.5808 114.381 55.5828V53.5429C114.381 52.545 114.217 51.7663 113.888 51.207C113.57 50.6367 113.016 50.3516 112.226 50.3516C111.437 50.3516 110.877 50.6367 110.548 51.207C110.23 51.7663 110.071 52.545 110.071 53.5429V55.5828C110.071 56.5808 110.23 57.3649 110.548 57.9352C110.877 58.4945 111.437 58.7741 112.226 58.7741ZM112.226 55.5334C111.842 55.5334 111.574 55.4567 111.42 55.3031C111.278 55.1496 111.206 54.9631 111.206 54.7438V54.3819C111.206 54.1626 111.278 53.9761 111.42 53.8226C111.574 53.6691 111.842 53.5923 112.226 53.5923C112.61 53.5923 112.873 53.6691 113.016 53.8226C113.169 53.9761 113.246 54.1626 113.246 54.3819V54.7438C113.246 54.9631 113.169 55.1496 113.016 55.3031C112.873 55.4567 112.61 55.5334 112.226 55.5334ZM120.23 58.33V60.304H118.075V58.33H116.973V56.7343H118.075V55.6815H116.973V54.0858H118.075V48.8217H122.188C123.306 48.8217 124.156 49.1288 124.738 49.7429C125.33 50.3571 125.626 51.196 125.626 52.2598C125.626 53.3236 125.33 54.1626 124.738 54.7767C124.145 55.3799 123.295 55.6815 122.188 55.6815H120.23V56.7343H123.718V58.33H120.23ZM120.23 54.0858H121.744C122.325 54.0858 122.742 53.9706 122.994 53.7403C123.257 53.4991 123.389 53.1207 123.389 52.6053V51.9473C123.389 51.4318 123.257 51.0589 122.994 50.8286C122.742 50.5874 122.325 50.4667 121.744 50.4667H120.23V54.0858Z" fill="#2C52CD"/>
<path d="M156.109 107.911L130.925 134.736L131.085 110.252L156.109 107.911Z" fill="#E7EFF2"/>
<defs>
<filter id="filter0_d_201_2" x="58.0723" y="0.709717" width="98.0366" height="136.259" filterUnits="userSpaceOnUse" color-interpolation-filters="sRGB">
<feFlood flood-opacity="0" result="BackgroundImageFix"/>
<feColorMatrix in="SourceAlpha" type="matrix" values="0 0 0 0 0 0 0 0 0 0 0 0 0 0 0 0 0 0 127 0" result="hardAlpha"/>
<feOffset dy="2.23261"/>
<feComposite in2="hardAlpha" operator="out"/>
<feColorMatrix type="matrix" values="0 0 0 0 0.375248 0 0 0 0 0.523796 0 0 0 0 0.587459 0 0 0 1 0"/>
<feBlend mode="normal" in2="BackgroundImageFix" result="effect1_dropShadow_201_2"/>
<feBlend mode="normal" in="SourceGraphic" in2="effect1_dropShadow_201_2" result="shape"/>
</filter>
<linearGradient id="paint0_linear_201_2" x1="47.9473" y1="54.089" x2="0.186026" y2="54.089" gradientUnits="userSpaceOnUse">
<stop stop-color="#6088DB"/>
<stop offset="1" stop-color="#2C52CD"/>
</linearGradient>
</defs>
</svg>
