<svg width="214" height="293" viewBox="0 0 214 293" fill="none" xmlns="http://www.w3.org/2000/svg">
<g style="mix-blend-mode:multiply">
<path d="M0.863281 3.42783L4.54984 289.827L160.246 287.829L213.32 229.802L210.364 0.731934L0.863281 3.42783ZM78.2649 29.6723C73.3765 29.7372 69.3814 25.8233 69.3164 20.9512C69.2515 16.0791 73.1654 12.0677 78.0375 12.0027C82.9096 11.9378 86.921 15.8517 86.9859 20.7238C87.0509 25.5959 83.137 29.6073 78.2649 29.6723ZM133.661 28.9577C128.772 29.0226 124.777 25.1087 124.712 20.2366C124.647 15.3645 128.561 11.3531 133.433 11.2882C138.305 11.2232 142.317 15.1371 142.382 20.0092C142.447 24.8814 138.533 28.8927 133.661 28.9577Z" fill="#E7EFF2"/>
</g>
<g filter="url(#filter0_d_129_2317)">
<path d="M10.5432 1.25208L10.5432 274.222L156.868 287.683L210.689 230.355L204.358 115.357L210.689 1.25208L111.201 10.8177L10.5432 1.25208ZM78.2324 28.4872C73.344 28.4872 69.3976 24.5245 69.3976 19.6524C69.3976 14.7803 73.3603 10.8177 78.2324 10.8177C83.1045 10.8177 87.0671 14.7803 87.0671 19.6524C87.0671 24.5245 83.1045 28.4872 78.2324 28.4872ZM133.628 28.4872C128.74 28.4872 124.793 24.5245 124.793 19.6524C124.793 14.7803 128.756 10.8177 133.628 10.8177C138.5 10.8177 142.463 14.7803 142.463 19.6524C142.463 24.5245 138.5 28.4872 133.628 28.4872Z" fill="white"/>
</g>
<path d="M210.689 230.355L156.868 287.684L174.414 253.428L210.689 230.355Z" fill="#E7EFF2"/>
<defs>
<filter id="filter0_d_129_2317" x="10.5432" y="1.25208" width="200.146" height="291.203" filterUnits="userSpaceOnUse" color-interpolation-filters="sRGB">
<feFlood flood-opacity="0" result="BackgroundImageFix"/>
<feColorMatrix in="SourceAlpha" type="matrix" values="0 0 0 0 0 0 0 0 0 0 0 0 0 0 0 0 0 0 127 0" result="hardAlpha"/>
<feOffset dy="4.77138"/>
<feComposite in2="hardAlpha" operator="out"/>
<feColorMatrix type="matrix" values="0 0 0 0 0.375248 0 0 0 0 0.523796 0 0 0 0 0.587459 0 0 0 1 0"/>
<feBlend mode="normal" in2="BackgroundImageFix" result="effect1_dropShadow_129_2317"/>
<feBlend mode="normal" in="SourceGraphic" in2="effect1_dropShadow_129_2317" result="shape"/>
</filter>
</defs>
</svg>
