<svg width="192" height="123" viewBox="0 0 192 123" fill="none" xmlns="http://www.w3.org/2000/svg">
<path d="M178.025 47.2748L102.516 110.444C102.261 110.656 101.993 110.811 101.725 110.981L105.622 115.64C105.89 115.471 106.172 115.315 106.412 115.103L181.922 51.9341C188.431 46.4841 189.292 36.7983 183.842 30.2893L179.945 25.63C185.395 32.139 184.52 41.8247 178.025 47.2748Z" fill="white"/>
<path d="M183.856 30.3044C189.306 36.8134 188.431 46.4991 181.936 51.935L106.427 115.104C106.172 115.316 105.904 115.471 105.636 115.641L101.739 110.982C102.007 110.812 102.29 110.657 102.53 110.445L178.039 47.2757C184.548 41.8257 185.409 32.1399 179.959 25.631L158.95 0.512909H0.560791L4.45771 5.17225L89.0176 106.252L91.7002 109.471L95.5972 114.13L99.6353 118.945L100.271 119.693C102.643 122.531 106.864 122.912 109.702 120.526L110.451 119.891L112.06 118.549L185.96 56.7215C192.469 51.2714 193.33 41.5857 187.88 35.0908L183.842 30.2762L183.856 30.3044Z" fill="#364A62"/>
<path d="M14.2563 0.525719L104.69 108.636L109.9 104.274L23.1091 0.525719H14.2563Z" fill="#4B5F7E"/>
</svg>
