<svg width="115" height="143" viewBox="0 0 115 143" fill="none" xmlns="http://www.w3.org/2000/svg">
<path d="M69.3851 1.44295L14.8285 17.4662L9.52107 19.0332C2.86577 20.9876 -0.942059 27.9631 1.01241 34.6184L8.77972 61.0711L14.0871 59.5042L92.7377 36.4044L84.9703 9.95163C83.0159 3.29632 76.0404 -0.511518 69.3851 1.44295Z" fill="#FF774B"/>
<path d="M14.0869 59.4872L8.77954 61.0541L30.1271 133.706C32.0816 140.362 39.057 144.17 45.7123 142.215L51.0197 140.648L105.576 124.625C112.232 122.67 116.039 115.695 114.085 109.04L92.7375 36.3874L14.0869 59.4872Z" fill="white"/>
<path d="M61.1966 14.6683L9.62221 29.8154C8.9314 30.0176 8.54386 30.7927 8.7629 31.5509L12.7224 45.03L13.6997 48.3661C13.9187 49.1243 14.66 49.5623 15.3508 49.3601L80.8593 30.1187C81.5501 29.9165 81.9376 29.1415 81.7186 28.3833L76.7819 11.5513C76.5628 10.7931 75.8214 10.355 75.1306 10.5572L61.1966 14.6515V14.6683Z" fill="#364A62"/>
<path d="M75.8233 49.6246L83.8734 47.2599C84.9079 46.956 85.9954 47.5497 86.2993 48.5842L88.664 56.6343C88.9679 57.6689 88.3743 58.7564 87.3397 59.0603L79.2896 61.425C78.255 61.7289 77.1514 61.14 76.8428 60.0892L74.4781 52.0391C74.1742 51.0046 74.7678 49.9171 75.8023 49.6132L75.8233 49.6246Z" fill="#C3D1D7"/>
<path d="M57.3764 55.0435L65.4264 52.6788C66.461 52.3749 67.5485 52.9685 67.8524 54.0031L70.2171 62.0532C70.521 63.0877 69.9273 64.1752 68.8927 64.4791L60.8427 66.8438C59.8081 67.1477 58.7206 66.5541 58.4167 65.5195L56.052 57.4694C55.7481 56.4349 56.3418 55.3474 57.3764 55.0435Z" fill="#FF774B"/>
<path d="M46.982 58.0916L20.4539 65.8842C19.4182 66.1884 18.8252 67.2746 19.1295 68.3103L21.499 76.377C21.8033 77.4127 22.8895 78.0057 23.9251 77.7014L50.4533 69.9089C51.489 69.6046 52.0819 68.5184 51.7777 67.4828L49.4081 59.416C49.1039 58.3804 48.0177 57.7874 46.982 58.0916Z" fill="#C3D1D7"/>
<path d="M88.9153 64.3704L80.849 66.7398C79.8134 67.044 79.2205 68.1302 79.5247 69.1658L81.8941 77.2321C82.1983 78.2677 83.2845 78.8606 84.3201 78.5564L92.3863 76.1869C93.4219 75.8827 94.0149 74.7966 93.7107 73.761L91.3412 65.6947C91.037 64.6591 89.9509 64.0662 88.9153 64.3704Z" fill="#C3D1D7"/>
<path d="M25.5028 83.0109L33.5529 80.6462C34.5875 80.3423 35.6749 80.9359 35.9788 81.9705L38.3435 90.0206C38.6474 91.0552 38.0538 92.1426 37.0193 92.4465L28.9691 94.8112C27.9346 95.1151 26.8471 94.5215 26.5432 93.4869L24.1785 85.4368C23.8746 84.4022 24.4683 83.3148 25.5028 83.0109Z" fill="#C3D1D7"/>
<path d="M52.0161 75.207L43.9498 77.5764C42.9142 77.8806 42.3213 78.9668 42.6255 80.0024L44.995 88.0686C45.2992 89.1042 46.3853 89.6972 47.4209 89.393L55.4872 87.0235C56.5228 86.7193 57.1157 85.6332 56.8115 84.5976L54.442 76.5313C54.1378 75.4957 53.0517 74.9028 52.0161 75.207Z" fill="#C3D1D7"/>
<path d="M62.413 72.1555L70.463 69.7908C71.4976 69.4869 72.5851 70.0806 72.889 71.1152L75.2537 79.1653C75.5576 80.1998 74.9639 81.2873 73.9294 81.5912L65.8793 83.9559C64.8447 84.2598 63.7572 83.6661 63.4534 82.6316L61.0887 74.5815C60.7848 73.5469 61.3784 72.4594 62.413 72.1555Z" fill="#C3D1D7"/>
<path d="M85.8865 83.8492L93.9371 81.4843C94.9717 81.1804 96.0593 81.7741 96.3632 82.8087L103.757 107.979C104.061 109.014 103.472 110.117 102.421 110.426L94.3705 112.791C93.3359 113.095 92.2483 112.501 91.9444 111.466L84.5507 86.2962C84.2468 85.2616 84.8405 84.174 85.8751 83.8701L85.8865 83.8492Z" fill="#4B5F7E"/>
<path d="M30.5114 100.11L38.5614 97.7458C39.596 97.4419 40.6835 98.0356 40.9874 99.0701L43.3521 107.12C43.656 108.155 43.0623 109.242 42.0278 109.546L33.9777 111.911C32.9431 112.215 31.8556 111.621 31.5517 110.587L29.187 102.536C28.8831 101.502 29.4768 100.414 30.5114 100.11Z" fill="#C3D1D7"/>
<path d="M57.0415 92.3222L48.9752 94.6916C47.9396 94.9958 47.3467 96.082 47.6509 97.1176L50.0204 105.184C50.3246 106.219 51.4107 106.812 52.4463 106.508L60.5126 104.139C61.5482 103.835 62.1411 102.748 61.8369 101.713L59.4674 93.6465C59.1632 92.6109 58.0771 92.018 57.0415 92.3222Z" fill="#C3D1D7"/>
<path d="M67.4383 89.253L75.4884 86.8883C76.523 86.5844 77.6105 87.1781 77.9144 88.2126L80.2791 96.2627C80.583 97.2973 79.9893 98.3848 78.9548 98.6887L70.9046 101.053C69.8701 101.357 68.7826 100.764 68.4787 99.7291L66.114 91.6789C65.8101 90.6444 66.4038 89.5569 67.4383 89.253Z" fill="#C3D1D7"/>
<path d="M43.5984 114.858L35.5321 117.228C34.4965 117.532 33.9036 118.618 34.2078 119.654L36.5772 127.72C36.8814 128.756 37.9676 129.348 39.0032 129.044L47.0695 126.675C48.1051 126.371 48.698 125.284 48.3938 124.249L46.0243 116.183C45.7201 115.147 44.634 114.554 43.5984 114.858Z" fill="#C3D1D7"/>
<path d="M54.0004 111.804L62.0505 109.439C63.085 109.135 64.1725 109.729 64.4764 110.763L66.8411 118.813C67.145 119.848 66.5513 120.935 65.5168 121.239L57.4667 123.604C56.4321 123.908 55.3446 123.314 55.0408 122.28L52.6761 114.23C52.3722 113.195 52.9658 112.108 54.0004 111.804Z" fill="#C3D1D7"/>
<path d="M72.4472 106.386L80.4973 104.021C81.5318 103.717 82.6193 104.311 82.9232 105.346L85.2879 113.396C85.5918 114.43 84.9982 115.518 83.9636 115.822L75.9135 118.186C74.8789 118.49 73.7914 117.897 73.4875 116.862L71.1228 108.812C70.8189 107.777 71.4126 106.69 72.4472 106.386Z" fill="#C3D1D7"/>
</svg>
