<svg width="166" height="137" viewBox="0 0 166 137" fill="none" xmlns="http://www.w3.org/2000/svg">
<mask id="path-1-inside-1_201_3" fill="white">
<path d="M147.019 42.255L147.019 88.6636L137.229 88.6636L137.229 42.255L125.166 54.3177L118.244 47.3949L142.124 23.5143L166.005 47.3949L159.082 54.3177L147.019 42.255Z"/>
</mask>
<path d="M147.019 42.255L147.019 88.6636L137.229 88.6636L137.229 42.255L125.166 54.3177L118.244 47.3949L142.124 23.5143L166.005 47.3949L159.082 54.3177L147.019 42.255Z" fill="white"/>
<path d="M147.019 42.255L154.798 34.4768L136.019 15.6986L136.019 42.255L147.019 42.255ZM147.019 88.6636L147.019 99.6636L158.019 99.6636L158.019 88.6636L147.019 88.6636ZM137.229 88.6636L126.229 88.6636L126.229 99.6636L137.229 99.6636L137.229 88.6636ZM137.229 42.255L148.229 42.255L148.229 15.6986L129.451 34.4768L137.229 42.255ZM125.166 54.3177L117.388 62.0959L125.166 69.874L132.945 62.0958L125.166 54.3177ZM118.244 47.3949L110.465 39.6167L102.687 47.3949L110.465 55.1731L118.244 47.3949ZM142.124 23.5143L149.902 15.7361L142.124 7.95792L134.346 15.7361L142.124 23.5143ZM166.005 47.3949L173.783 55.1731L181.561 47.3949L173.783 39.6167L166.005 47.3949ZM159.082 54.3177L151.304 62.0959L159.082 69.874L166.86 62.0959L159.082 54.3177ZM147.019 42.255L136.019 42.255L136.019 88.6636L147.019 88.6636L158.019 88.6636L158.019 42.255L147.019 42.255ZM147.019 88.6636L147.019 77.6636L137.229 77.6636L137.229 88.6636L137.229 99.6636L147.019 99.6636L147.019 88.6636ZM137.229 88.6636L148.229 88.6636L148.229 42.255L137.229 42.255L126.229 42.255L126.229 88.6636L137.229 88.6636ZM137.229 42.255L129.451 34.4768L117.388 46.5395L125.166 54.3177L132.945 62.0958L145.007 50.0332L137.229 42.255ZM125.166 54.3177L132.945 46.5395L126.022 39.6167L118.244 47.3949L110.465 55.1731L117.388 62.0959L125.166 54.3177ZM118.244 47.3949L126.022 55.1731L149.902 31.2924L142.124 23.5143L134.346 15.7361L110.465 39.6167L118.244 47.3949ZM142.124 23.5143L134.346 31.2924L158.227 55.1731L166.005 47.3949L173.783 39.6167L149.902 15.7361L142.124 23.5143ZM166.005 47.3949L158.227 39.6167L151.304 46.5395L159.082 54.3177L166.86 62.0959L173.783 55.1731L166.005 47.3949ZM159.082 54.3177L166.86 46.5395L154.798 34.4768L147.019 42.255L139.241 50.0332L151.304 62.0959L159.082 54.3177Z" fill="#F87703" mask="url(#path-1-inside-1_201_3)"/>
<g style="mix-blend-mode:multiply">
<path d="M0.821777 1.65825L2.54678 135.669L75.3998 134.735L100.234 107.583L98.8508 0.39679L0.821777 1.65825ZM37.0393 13.9385C34.752 13.9689 32.8826 12.1375 32.8522 9.85773C32.8218 7.57798 34.6532 5.70099 36.9329 5.6706C39.2127 5.6402 41.0897 7.4716 41.1201 9.75134C41.1505 12.0311 39.3191 13.9081 37.0393 13.9385ZM62.96 13.6041C60.6727 13.6345 58.8033 11.8031 58.7729 9.52337C58.7425 7.24362 60.5739 5.36663 62.8536 5.33624C65.1334 5.30584 67.0104 7.13723 67.0408 9.41698C67.0712 11.6967 65.2398 13.5737 62.96 13.6041Z" fill="#E0BB9B"/>
</g>
<g filter="url(#filter0_d_201_3)">
<path d="M5.35134 0.640137L0.966309 134.666H73.8193L99.0029 107.841L94.9484 55.0719L99.0029 0.640137L5.35134 0.640137ZM37.0243 13.3839C34.7369 13.3839 32.8903 11.5297 32.8903 9.24997C32.8903 6.97023 34.7445 5.11604 37.0243 5.11604C39.304 5.11604 41.1582 6.97023 41.1582 9.24997C41.1582 11.5297 39.304 13.3839 37.0243 13.3839ZM62.945 13.3839C60.6576 13.3839 58.811 11.5297 58.811 9.24997C58.811 6.97023 60.6652 5.11604 62.945 5.11604C65.2247 5.11604 67.0789 6.97023 67.0789 9.24997C67.0789 11.5297 65.2247 13.3839 62.945 13.3839Z" fill="#F0E9E2"/>
</g>
<path d="M38.5053 23.3905H41.561V24.1725H39.4539V25.3745H40.5256C40.7573 25.3745 40.9649 25.4131 41.1483 25.4904C41.3366 25.5628 41.4959 25.6666 41.6262 25.8017C41.7565 25.9321 41.8555 26.0914 41.9231 26.2796C41.9907 26.4679 42.0245 26.6779 42.0245 26.9096C42.0245 27.1413 41.9907 27.3513 41.9231 27.5396C41.8555 27.7278 41.7565 27.8896 41.6262 28.0247C41.4959 28.1551 41.3366 28.2589 41.1483 28.3361C40.9649 28.4085 40.7573 28.4447 40.5256 28.4447H38.5053V23.3905ZM40.3807 27.6844C40.5932 27.6844 40.7549 27.6361 40.8659 27.5396C40.9818 27.4382 41.0397 27.2837 41.0397 27.0762V26.7431C41.0397 26.5355 40.9818 26.3834 40.8659 26.2869C40.7549 26.1855 40.5932 26.1348 40.3807 26.1348H39.4539V27.6844H40.3807ZM44.2587 28.5316C43.9594 28.5316 43.6939 28.4857 43.4622 28.394C43.2304 28.3023 43.0349 28.172 42.8756 28.003C42.7212 27.834 42.6029 27.6313 42.5208 27.3948C42.4388 27.1534 42.3977 26.8831 42.3977 26.5838C42.3977 26.2796 42.4388 26.0069 42.5208 25.7655C42.6077 25.5242 42.7284 25.319 42.8829 25.1501C43.0374 24.9811 43.2232 24.8508 43.4404 24.759C43.6625 24.6673 43.9111 24.6215 44.1863 24.6215C44.4566 24.6215 44.7004 24.6673 44.9176 24.759C45.1348 24.8459 45.3183 24.9714 45.4679 25.1356C45.6224 25.2997 45.7407 25.4976 45.8227 25.7293C45.9048 25.961 45.9458 26.2169 45.9458 26.4969V26.801H43.3246V26.8951C43.3246 27.1655 43.4091 27.3851 43.578 27.5541C43.747 27.7182 43.9835 27.8003 44.2876 27.8003C44.5193 27.8003 44.7173 27.7544 44.8814 27.6627C45.0503 27.5661 45.1903 27.4406 45.3014 27.2861L45.83 27.8147C45.6948 28.0127 45.4969 28.1816 45.2362 28.3216C44.9803 28.4616 44.6545 28.5316 44.2587 28.5316ZM44.1935 25.3021C43.9328 25.3021 43.7228 25.3842 43.5635 25.5483C43.4042 25.7124 43.3246 25.9297 43.3246 26.2V26.2507H45.019V26.1855C45.019 25.9152 44.9441 25.7004 44.7945 25.5411C44.6497 25.3818 44.4493 25.3021 44.1935 25.3021ZM46.5508 24.7084H47.4776V26.1783H48.8679V24.7084H49.7948V28.4447H48.8679V26.9096H47.4776V28.4447H46.5508V24.7084ZM52.1014 28.5316C51.7055 28.5316 51.3628 28.4737 51.0732 28.3578C50.7884 28.2371 50.5615 28.0609 50.3925 27.8292L50.9501 27.3223C51.0901 27.4913 51.2469 27.6168 51.4207 27.6989C51.5993 27.7809 51.8166 27.822 52.0724 27.822C52.3476 27.822 52.5479 27.7785 52.6734 27.6916C52.7989 27.6047 52.8617 27.4889 52.8617 27.3441V27.2861C52.8617 27.0158 52.6976 26.8806 52.3693 26.8806H51.4497V26.2362H52.2752C52.4538 26.2362 52.5841 26.2 52.6662 26.1276C52.7482 26.0552 52.7893 25.9538 52.7893 25.8235V25.7728C52.7893 25.6473 52.7314 25.5435 52.6155 25.4614C52.4996 25.3745 52.3138 25.3311 52.0579 25.3311C51.8214 25.3311 51.6211 25.3697 51.4569 25.4469C51.2928 25.5242 51.148 25.64 51.0225 25.7945L50.4794 25.3238C50.6677 25.1018 50.8921 24.9304 51.1528 24.8097C51.4135 24.6842 51.7442 24.6215 52.1448 24.6215C52.6565 24.6215 53.0475 24.7156 53.3179 24.9039C53.593 25.0921 53.7306 25.3407 53.7306 25.6497C53.7306 25.8717 53.663 26.0528 53.5279 26.1928C53.3927 26.3327 53.2117 26.4245 52.9848 26.4679V26.5041C53.231 26.5427 53.4289 26.6393 53.5785 26.7938C53.7282 26.9434 53.803 27.1413 53.803 27.3875C53.803 27.7351 53.6534 28.0127 53.3541 28.2202C53.0596 28.4278 52.642 28.5316 52.1014 28.5316ZM56.2617 28.5316C55.9624 28.5316 55.6969 28.4857 55.4652 28.394C55.2335 28.3023 55.038 28.172 54.8787 28.003C54.7242 27.834 54.6059 27.6313 54.5239 27.3948C54.4418 27.1534 54.4008 26.8831 54.4008 26.5838C54.4008 26.2796 54.4418 26.0069 54.5239 25.7655C54.6108 25.5242 54.7314 25.319 54.8859 25.1501C55.0404 24.9811 55.2262 24.8508 55.4435 24.759C55.6655 24.6673 55.9141 24.6215 56.1893 24.6215C56.4596 24.6215 56.7034 24.6673 56.9206 24.759C57.1379 24.8459 57.3213 24.9714 57.4709 25.1356C57.6254 25.2997 57.7437 25.4976 57.8258 25.7293C57.9078 25.961 57.9488 26.2169 57.9488 26.4969V26.801H55.3276V26.8951C55.3276 27.1655 55.4121 27.3851 55.581 27.5541C55.75 27.7182 55.9865 27.8003 56.2907 27.8003C56.5224 27.8003 56.7203 27.7544 56.8844 27.6627C57.0534 27.5661 57.1934 27.4406 57.3044 27.2861L57.833 27.8147C57.6978 28.0127 57.4999 28.1816 57.2392 28.3216C56.9834 28.4616 56.6575 28.5316 56.2617 28.5316ZM56.1965 25.3021C55.9359 25.3021 55.7259 25.3842 55.5666 25.5483C55.4073 25.7124 55.3276 25.9297 55.3276 26.2V26.2507H57.022V26.1855C57.022 25.9152 56.9472 25.7004 56.7975 25.5411C56.6527 25.3818 56.4524 25.3021 56.1965 25.3021ZM58.5538 24.7084H59.4807V26.1783H60.871V24.7084H61.7978V28.4447H60.871V26.9096H59.4807V28.4447H58.5538V24.7084Z" fill="#2C52CD"/>
<path d="M37.7795 60.2344V58.0136H32.4661V56.1711L37.1544 48.7521H39.8358V56.3357H41.3821V58.0136H39.8358V60.2344H37.7795ZM34.2262 56.3357H37.7795V50.8577H37.6479L34.2262 56.3357ZM49.6163 50.6274H44.3522L44.0726 54.4768H44.2042C44.3358 54.2355 44.4784 54.0162 44.6319 53.8188C44.7854 53.6104 44.9609 53.4349 45.1583 53.2923C45.3667 53.1498 45.597 53.0401 45.8492 52.9633C46.1124 52.8866 46.414 52.8482 46.754 52.8482C47.2365 52.8482 47.6917 52.9304 48.1194 53.0949C48.5471 53.2594 48.9199 53.4952 49.238 53.8023C49.556 54.1094 49.8028 54.4877 49.9783 54.9374C50.1647 55.387 50.2579 55.897 50.2579 56.4673C50.2579 57.0375 50.1592 57.5639 49.9618 58.0465C49.7754 58.529 49.4957 58.9513 49.1228 59.3132C48.7609 59.6641 48.3113 59.9383 47.7739 60.1357C47.2475 60.3331 46.6388 60.4318 45.9479 60.4318C45.4105 60.4318 44.928 60.3715 44.5003 60.2508C44.0836 60.1412 43.7162 59.9876 43.3981 59.7902C43.0801 59.5928 42.8004 59.368 42.5592 59.1158C42.3179 58.8525 42.1095 58.5839 41.934 58.3097L43.4968 57.0759C43.6284 57.2953 43.771 57.5036 43.9245 57.701C44.089 57.8875 44.27 58.052 44.4674 58.1945C44.6648 58.3371 44.8841 58.4523 45.1254 58.54C45.3776 58.6168 45.6628 58.6551 45.9808 58.6551C46.6388 58.6551 47.1378 58.4797 47.4778 58.1287C47.8287 57.7668 48.0042 57.2733 48.0042 56.6482V56.5166C48.0042 55.9134 47.8287 55.4419 47.4778 55.1019C47.1269 54.7619 46.6334 54.5919 45.9973 54.5919C45.5147 54.5919 45.1199 54.6851 44.8129 54.8716C44.5167 55.047 44.2755 55.239 44.089 55.4473L42.3289 55.2006L42.7566 48.7521H49.6163V50.6274ZM55.1198 60.4318C54.3741 60.4318 53.727 60.3002 53.1787 60.037C52.6303 59.7628 52.1752 59.3735 51.8133 58.869C51.4624 58.3645 51.1991 57.7449 51.0237 57.0101C50.8592 56.2753 50.7769 55.4364 50.7769 54.4932C50.7769 53.561 50.8592 52.7275 51.0237 51.9928C51.1991 51.247 51.4624 50.6219 51.8133 50.1174C52.1752 49.613 52.6303 49.2291 53.1787 48.9659C53.727 48.6917 54.3741 48.5547 55.1198 48.5547C56.6113 48.5547 57.708 49.0756 58.4099 50.1174C59.1117 51.1593 59.4627 52.6179 59.4627 54.4932C59.4627 56.3686 59.1117 57.8271 58.4099 58.869C57.708 59.9109 56.6113 60.4318 55.1198 60.4318ZM55.1198 58.7045C55.9094 58.7045 56.4632 58.4248 56.7813 57.8655C57.1103 57.2953 57.2748 56.5111 57.2748 55.5131V53.4733C57.2748 52.4753 57.1103 51.6967 56.7813 51.1374C56.4632 50.5671 55.9094 50.2819 55.1198 50.2819C54.3302 50.2819 53.7709 50.5671 53.4419 51.1374C53.1238 51.6967 52.9648 52.4753 52.9648 53.4733V55.5131C52.9648 56.5111 53.1238 57.2953 53.4419 57.8655C53.7709 58.4248 54.3302 58.7045 55.1198 58.7045ZM55.1198 55.4638C54.736 55.4638 54.4673 55.387 54.3137 55.2335C54.1712 55.0799 54.0999 54.8935 54.0999 54.6742V54.3123C54.0999 54.0929 54.1712 53.9065 54.3137 53.753C54.4673 53.5994 54.736 53.5226 55.1198 53.5226C55.5036 53.5226 55.7669 53.5994 55.9094 53.753C56.063 53.9065 56.1397 54.0929 56.1397 54.3123V54.6742C56.1397 54.8935 56.063 55.0799 55.9094 55.2335C55.7669 55.387 55.5036 55.4638 55.1198 55.4638ZM63.5679 60.4153C62.7125 60.3495 61.9777 60.1576 61.3635 59.8396C60.7604 59.5106 60.2668 59.0883 59.883 58.5729L61.1826 57.2404C61.9064 58.052 62.7399 58.5126 63.683 58.6222V55.217L63.3047 55.1512C62.7673 55.0525 62.3012 54.9045 61.9064 54.7071C61.5226 54.5097 61.2045 54.2684 60.9523 53.9833C60.711 53.6981 60.53 53.3801 60.4094 53.0291C60.2997 52.6782 60.2449 52.2998 60.2449 51.8941C60.2449 50.9619 60.53 50.2107 61.1003 49.6404C61.6816 49.0701 62.5041 48.7246 63.5679 48.604V46.8932H65.18V48.5876C65.8929 48.6753 66.5015 48.8562 67.006 49.1304C67.5214 49.4046 67.9546 49.761 68.3056 50.1997L67.006 51.5322C66.5015 50.929 65.8545 50.5616 65.0649 50.43V53.5555L65.4761 53.6213C66.5509 53.8188 67.3295 54.2026 67.8121 54.7729C68.2946 55.3322 68.5359 56.0231 68.5359 56.8456C68.5359 57.7778 68.2452 58.5564 67.664 59.1816C67.0937 59.7957 66.2657 60.185 65.18 60.3495V62.0933H63.5679V60.4153ZM62.2683 51.8283C62.2683 52.234 62.378 52.5466 62.5973 52.7659C62.8166 52.9853 63.1785 53.1553 63.683 53.2759V50.3806C62.7399 50.5122 62.2683 50.9948 62.2683 51.8283ZM66.5289 56.9772C66.5289 56.5385 66.4138 56.2095 66.1835 55.9902C65.9532 55.7599 65.5803 55.5899 65.0649 55.4802V58.6058C65.5584 58.5181 65.9258 58.3371 66.167 58.0629C66.4083 57.7888 66.5289 57.4269 66.5289 56.9772Z" fill="#2C52CD"/>
<path d="M99.0029 107.841L73.8193 134.666L73.9789 110.182L99.0029 107.841Z" fill="#E0BB9B"/>
<defs>
<filter id="filter0_d_201_3" x="0.966309" y="0.640137" width="98.0366" height="136.259" filterUnits="userSpaceOnUse" color-interpolation-filters="sRGB">
<feFlood flood-opacity="0" result="BackgroundImageFix"/>
<feColorMatrix in="SourceAlpha" type="matrix" values="0 0 0 0 0 0 0 0 0 0 0 0 0 0 0 0 0 0 127 0" result="hardAlpha"/>
<feOffset dy="2.23261"/>
<feComposite in2="hardAlpha" operator="out"/>
<feColorMatrix type="matrix" values="0 0 0 0 0.375248 0 0 0 0 0.523796 0 0 0 0 0.587459 0 0 0 1 0"/>
<feBlend mode="normal" in2="BackgroundImageFix" result="effect1_dropShadow_201_3"/>
<feBlend mode="normal" in="SourceGraphic" in2="effect1_dropShadow_201_3" result="shape"/>
</filter>
</defs>
</svg>
