<svg width="158" height="137" viewBox="0 0 158 137" fill="none" xmlns="http://www.w3.org/2000/svg">
<mask id="path-1-inside-1_201_2" fill="white">
<path d="M19.1715 67.9229L19.1715 21.5143L28.9618 21.5143L28.9618 67.9229L41.0245 55.8602L47.9473 62.783L24.0667 86.6636L0.186026 62.783L7.10881 55.8602L19.1715 67.9229Z"/>
</mask>
<path d="M19.1715 67.9229L19.1715 21.5143L28.9618 21.5143L28.9618 67.9229L41.0245 55.8602L47.9473 62.783L24.0667 86.6636L0.186026 62.783L7.10881 55.8602L19.1715 67.9229Z" fill="white"/>
<path d="M19.1715 67.9229L11.3933 75.7011L30.1715 94.4793L30.1715 67.9229L19.1715 67.9229ZM19.1715 21.5143L19.1715 10.5143L8.17151 10.5143L8.1715 21.5143L19.1715 21.5143ZM28.9618 21.5143L39.9618 21.5143L39.9618 10.5143L28.9618 10.5143L28.9618 21.5143ZM28.9618 67.9229L17.9618 67.9229L17.9618 94.4793L36.74 75.7011L28.9618 67.9229ZM41.0245 55.8602L48.8027 48.0821L41.0245 40.3039L33.2463 48.0821L41.0245 55.8602ZM47.9473 62.783L55.7254 70.5612L63.5036 62.783L55.7254 55.0048L47.9473 62.783ZM24.0667 86.6636L16.2885 94.4418L24.0667 102.22L31.8448 94.4418L24.0667 86.6636ZM0.186026 62.783L-7.59215 55.0048L-15.3703 62.783L-7.59215 70.5612L0.186026 62.783ZM7.10881 55.8602L14.887 48.0821L7.10881 40.3039L-0.66937 48.0821L7.10881 55.8602ZM19.1715 67.9229L30.1715 67.9229L30.1715 21.5143L19.1715 21.5143L8.1715 21.5143L8.1715 67.9229L19.1715 67.9229ZM19.1715 21.5143L19.1715 32.5143L28.9618 32.5143L28.9618 21.5143L28.9618 10.5143L19.1715 10.5143L19.1715 21.5143ZM28.9618 21.5143L17.9618 21.5143L17.9618 67.9229L28.9618 67.9229L39.9618 67.9229L39.9618 21.5143L28.9618 21.5143ZM28.9618 67.9229L36.74 75.7011L48.8027 63.6384L41.0245 55.8602L33.2463 48.0821L21.1836 60.1448L28.9618 67.9229ZM41.0245 55.8602L33.2463 63.6384L40.1691 70.5612L47.9473 62.783L55.7254 55.0048L48.8027 48.0821L41.0245 55.8602ZM47.9473 62.783L40.1691 55.0048L16.2885 78.8855L24.0667 86.6636L31.8448 94.4418L55.7254 70.5612L47.9473 62.783ZM24.0667 86.6636L31.8448 78.8855L7.9642 55.0048L0.186026 62.783L-7.59215 70.5612L16.2885 94.4418L24.0667 86.6636ZM0.186026 62.783L7.9642 70.5612L14.887 63.6384L7.10881 55.8602L-0.66937 48.0821L-7.59215 55.0048L0.186026 62.783ZM7.10881 55.8602L-0.669371 63.6384L11.3933 75.7011L19.1715 67.9229L26.9497 60.1448L14.887 48.0821L7.10881 55.8602Z" fill="url(#paint0_linear_201_2)" mask="url(#path-1-inside-1_201_2)"/>
<g style="mix-blend-mode:multiply">
<path d="M57.9282 1.72783L59.6532 135.739L132.506 134.804L157.34 107.652L155.957 0.46637L57.9282 1.72783ZM94.1458 14.008C91.8584 14.0384 89.989 12.2071 89.9586 9.92731C89.9282 7.64756 91.7596 5.77057 94.0394 5.74018C96.3191 5.70978 98.1961 7.54118 98.2265 9.82092C98.2569 12.1007 96.4255 13.9777 94.1458 14.008ZM120.066 13.6737C117.779 13.7041 115.91 11.8727 115.879 9.59295C115.849 7.3132 117.68 5.43621 119.96 5.40582C122.24 5.37542 124.117 7.20681 124.147 9.48656C124.178 11.7663 122.346 13.6433 120.066 13.6737Z" fill="#E7EFF2"/>
</g>
<g filter="url(#filter0_d_201_2)">
<path d="M58.0723 0.709717L58.0723 134.736H130.925L156.109 107.911V0.709717L58.0723 0.709717ZM94.1302 13.4535C91.8429 13.4535 89.9963 11.5993 89.9963 9.31955C89.9963 7.03981 91.8505 5.18562 94.1302 5.18562C96.41 5.18562 98.2642 7.03981 98.2642 9.31955C98.2642 11.5993 96.41 13.4535 94.1302 13.4535ZM120.051 13.4535C117.764 13.4535 115.917 11.5993 115.917 9.31955C115.917 7.03981 117.771 5.18562 120.051 5.18562C122.331 5.18562 124.185 7.03981 124.185 9.31955C124.185 11.5993 122.331 13.4535 120.051 13.4535Z" fill="#F7FAFB"/>
</g>
<path d="M88.8547 26.3203H88.4927L87.993 28.5143H87.1169L87.5369 26.6751C87.59 26.4385 87.6624 26.2647 87.7541 26.1537C87.8458 26.0427 87.9713 25.9703 88.1306 25.9365V25.9003C87.9906 25.8617 87.8772 25.7917 87.7903 25.6903C87.7034 25.5841 87.6358 25.42 87.5875 25.1979L87.2038 23.4601H88.022L88.4927 25.5889H88.8547V23.4601H89.6947V25.5889H90.0567L90.5274 23.4601H91.3456L90.9618 25.2052C90.9136 25.4224 90.846 25.5841 90.7591 25.6903C90.6722 25.7917 90.5588 25.8617 90.4188 25.9003V25.9365C90.5781 25.9703 90.7036 26.0427 90.7953 26.1537C90.887 26.2647 90.9594 26.4385 91.0125 26.6751L91.4325 28.5143H90.5563L90.0567 26.3203H89.6947V28.5143H88.8547V26.3203ZM91.5886 23.4601H92.5371V25.56H93.225L94.1157 23.4601H95.086L94.3039 25.321C94.2219 25.5141 94.1398 25.6541 94.0577 25.741C93.9757 25.823 93.8743 25.8761 93.7536 25.9003V25.9365C93.8743 25.9655 93.9733 26.021 94.0505 26.103C94.1326 26.1803 94.2146 26.3154 94.2967 26.5085L94.7963 27.7323H95.2235V28.5143H94.6877C94.485 28.5143 94.3184 28.466 94.1881 28.3695C94.0577 28.2681 93.9443 28.1015 93.8477 27.8698L93.225 26.342H92.5371V28.5143H91.5886V23.4601ZM99.3476 28.5143H98.276L97.7257 27.5078L97.284 26.6244H97.226L96.7698 27.5078L96.2051 28.5143H95.2058L96.6902 25.9075L95.2999 23.4601H96.3788L96.8423 24.3145L97.284 25.1907H97.3346L97.7836 24.3145L98.2687 23.4601H99.268L97.8705 25.922L99.3476 28.5143ZM106.3 24.7779H107.241L105.453 29.1805C105.351 29.4363 105.216 29.6294 105.047 29.7597C104.878 29.8949 104.639 29.9625 104.33 29.9625H103.65V29.2311H104.54L104.823 28.4781L103.316 24.7779H104.301L104.873 26.342L105.272 27.5295H105.322L105.72 26.342L106.3 24.7779ZM109.425 28.6012C109.14 28.6012 108.884 28.5553 108.657 28.4636C108.43 28.3719 108.237 28.2415 108.078 28.0726C107.923 27.9036 107.803 27.6985 107.716 27.4571C107.634 27.2157 107.593 26.9454 107.593 26.6461C107.593 26.3468 107.634 26.0765 107.716 25.8351C107.803 25.5938 107.923 25.3886 108.078 25.2196C108.237 25.0507 108.428 24.9203 108.65 24.8286C108.877 24.7369 109.133 24.691 109.417 24.691C109.813 24.691 110.132 24.7731 110.373 24.9372C110.615 25.1014 110.798 25.3186 110.923 25.5889L110.207 25.9799C110.139 25.8206 110.042 25.6927 109.917 25.5962C109.796 25.4948 109.63 25.4441 109.417 25.4441C109.142 25.4441 108.93 25.5238 108.78 25.6831C108.635 25.8424 108.563 26.0596 108.563 26.3347V26.9575C108.563 27.2278 108.635 27.445 108.78 27.6092C108.93 27.7685 109.147 27.8481 109.432 27.8481C109.654 27.8481 109.83 27.7974 109.96 27.6961C110.096 27.5947 110.204 27.4595 110.286 27.2906L110.981 27.7033C110.856 27.9688 110.665 28.186 110.409 28.355C110.158 28.5191 109.83 28.6012 109.425 28.6012ZM111.275 27.7829H111.767C111.825 27.7105 111.876 27.6236 111.919 27.5223C111.968 27.4209 112.006 27.3002 112.035 27.1602C112.069 27.0202 112.093 26.8561 112.108 26.6678C112.127 26.4796 112.137 26.2623 112.137 26.0161V24.7779H114.881V28.5143H113.954V25.5093H112.984V26.0379C112.984 26.3709 112.969 26.6582 112.94 26.8995C112.916 27.1409 112.88 27.3485 112.832 27.5223C112.788 27.6912 112.735 27.8312 112.673 27.9422C112.615 28.0484 112.552 28.1378 112.484 28.2102C112.364 28.3357 112.226 28.4226 112.072 28.4708C111.917 28.5191 111.743 28.5432 111.55 28.5432H111.275V27.7829ZM118.303 24.7779H119.244L117.456 29.1805C117.354 29.4363 117.219 29.6294 117.05 29.7597C116.881 29.8949 116.642 29.9625 116.333 29.9625H115.653V29.2311H116.543L116.826 28.4781L115.319 24.7779H116.304L116.876 26.342L117.275 27.5295H117.325L117.723 26.342L118.303 24.7779ZM120.023 24.7779H122.803V25.5093H120.95V28.5143H120.023V24.7779ZM123.662 24.7779H124.567V26.1899L124.487 27.2471H124.531L126.037 24.7779H126.906V28.5143H126.001V27.1023L126.08 26.0451H126.037L124.531 28.5143H123.662V24.7779Z" fill="#2C52CD"/>
<path d="M94.886 60.304V58.0832H89.5725V56.2408L94.2608 48.8217H96.9422V56.4053H98.4886V58.0832H96.9422V60.304H94.886ZM91.3327 56.4053H94.886V50.9273H94.7544L91.3327 56.4053ZM106.723 50.697H101.459L101.179 54.5464H101.311C101.442 54.3051 101.585 54.0858 101.738 53.8884C101.892 53.68 102.067 53.5046 102.265 53.362C102.473 53.2194 102.703 53.1097 102.956 53.033C103.219 52.9562 103.52 52.9178 103.86 52.9178C104.343 52.9178 104.798 53.0001 105.226 53.1646C105.654 53.3291 106.026 53.5649 106.344 53.8719C106.662 54.179 106.909 54.5574 107.085 55.007C107.271 55.4567 107.364 55.9666 107.364 56.5369C107.364 57.1072 107.266 57.6336 107.068 58.1161C106.882 58.5987 106.602 59.0209 106.229 59.3828C105.867 59.7337 105.418 60.0079 104.88 60.2053C104.354 60.4027 103.745 60.5014 103.054 60.5014C102.517 60.5014 102.034 60.4411 101.607 60.3205C101.19 60.2108 100.823 60.0573 100.505 59.8599C100.187 59.6625 99.9069 59.4376 99.6656 59.1854C99.4243 58.9222 99.216 58.6535 99.0405 58.3793L100.603 57.1456C100.735 57.3649 100.877 57.5733 101.031 57.7707C101.195 57.9571 101.376 58.1216 101.574 58.2642C101.771 58.4067 101.991 58.5219 102.232 58.6096C102.484 58.6864 102.769 58.7248 103.087 58.7248C103.745 58.7248 104.244 58.5493 104.584 58.1984C104.935 57.8365 105.111 57.343 105.111 56.7178V56.5862C105.111 55.9831 104.935 55.5115 104.584 55.1715C104.233 54.8315 103.74 54.6616 103.104 54.6616C102.621 54.6616 102.226 54.7548 101.919 54.9412C101.623 55.1167 101.382 55.3086 101.195 55.517L99.4353 55.2702L99.863 48.8217H106.723V50.697ZM112.226 60.5014C111.481 60.5014 110.833 60.3698 110.285 60.1066C109.737 59.8324 109.282 59.4431 108.92 58.9386C108.569 58.4342 108.306 57.8145 108.13 57.0798C107.966 56.345 107.883 55.506 107.883 54.5629C107.883 53.6307 107.966 52.7972 108.13 52.0624C108.306 51.3167 108.569 50.6915 108.92 50.1871C109.282 49.6826 109.737 49.2988 110.285 49.0356C110.833 48.7614 111.481 48.6243 112.226 48.6243C113.718 48.6243 114.814 49.1452 115.516 50.1871C116.218 51.2289 116.569 52.6875 116.569 54.5629C116.569 56.4382 116.218 57.8968 115.516 58.9386C114.814 59.9805 113.718 60.5014 112.226 60.5014ZM112.226 58.7741C113.016 58.7741 113.57 58.4945 113.888 57.9352C114.217 57.3649 114.381 56.5808 114.381 55.5828V53.5429C114.381 52.545 114.217 51.7663 113.888 51.207C113.57 50.6367 113.016 50.3516 112.226 50.3516C111.437 50.3516 110.877 50.6367 110.548 51.207C110.23 51.7663 110.071 52.545 110.071 53.5429V55.5828C110.071 56.5808 110.23 57.3649 110.548 57.9352C110.877 58.4945 111.437 58.7741 112.226 58.7741ZM112.226 55.5334C111.842 55.5334 111.574 55.4567 111.42 55.3031C111.278 55.1496 111.206 54.9631 111.206 54.7438V54.3819C111.206 54.1626 111.278 53.9761 111.42 53.8226C111.574 53.6691 111.842 53.5923 112.226 53.5923C112.61 53.5923 112.873 53.6691 113.016 53.8226C113.169 53.9761 113.246 54.1626 113.246 54.3819V54.7438C113.246 54.9631 113.169 55.1496 113.016 55.3031C112.873 55.4567 112.61 55.5334 112.226 55.5334ZM120.23 58.33V60.304H118.075V58.33H116.973V56.7343H118.075V55.6815H116.973V54.0858H118.075V48.8217H122.188C123.306 48.8217 124.156 49.1288 124.738 49.7429C125.33 50.3571 125.626 51.196 125.626 52.2598C125.626 53.3236 125.33 54.1626 124.738 54.7767C124.145 55.3799 123.295 55.6815 122.188 55.6815H120.23V56.7343H123.718V58.33H120.23ZM120.23 54.0858H121.744C122.325 54.0858 122.742 53.9706 122.994 53.7403C123.257 53.4991 123.389 53.1207 123.389 52.6053V51.9473C123.389 51.4318 123.257 51.0589 122.994 50.8286C122.742 50.5874 122.325 50.4667 121.744 50.4667H120.23V54.0858Z" fill="#2C52CD"/>
<path d="M78.8218 65.4272H81.8124V66.2092H79.7704V70.4814H78.8218V65.4272ZM85.5454 70.4814C85.3186 70.4814 85.1424 70.4259 85.0169 70.3148C84.8962 70.199 84.8238 70.0397 84.7996 69.8369H84.7634C84.6958 70.0686 84.5631 70.2497 84.3652 70.38C84.1672 70.5055 83.9235 70.5683 83.6338 70.5683C83.2573 70.5683 82.958 70.4693 82.7359 70.2714C82.5139 70.0735 82.4029 69.7983 82.4029 69.4459C82.4029 68.6929 82.9556 68.3163 84.061 68.3163H84.72V68.0701C84.72 67.8336 84.662 67.655 84.5462 67.5343C84.4303 67.4136 84.2421 67.3533 83.9814 67.3533C83.7449 67.3533 83.5542 67.3991 83.4094 67.4909C83.2645 67.5826 83.1414 67.7008 83.0401 67.8457L82.5115 67.3967C82.6273 67.1891 82.8132 67.0154 83.069 66.8754C83.3297 66.7306 83.6652 66.6581 84.0755 66.6581C84.5679 66.6581 84.9517 66.774 85.2268 67.0057C85.5068 67.2326 85.6468 67.5729 85.6468 68.0267V69.7862H86.0885V70.4814H85.5454ZM83.9452 69.9311C84.1672 69.9311 84.3507 69.8804 84.4955 69.779C84.6452 69.6728 84.72 69.5304 84.72 69.3518V68.8522H84.0828C83.5759 68.8522 83.3225 69.0115 83.3225 69.3301V69.4749C83.3225 69.6245 83.378 69.738 83.489 69.8152C83.6 69.8925 83.7521 69.9311 83.9452 69.9311ZM88.0983 70.5683C87.7024 70.5683 87.3597 70.5103 87.07 70.3945C86.7852 70.2738 86.5583 70.0976 86.3894 69.8659L86.9469 69.359C87.0869 69.528 87.2438 69.6535 87.4176 69.7356C87.5962 69.8176 87.8135 69.8587 88.0693 69.8587C88.3445 69.8587 88.5448 69.8152 88.6703 69.7283C88.7958 69.6414 88.8586 69.5256 88.8586 69.3808V69.3228C88.8586 69.0525 88.6944 68.9173 88.3662 68.9173H87.4466V68.2729H88.272C88.4507 68.2729 88.581 68.2367 88.6631 68.1643C88.7451 68.0919 88.7862 67.9905 88.7862 67.8601V67.8095C88.7862 67.6839 88.7282 67.5802 88.6124 67.4981C88.4965 67.4112 88.3107 67.3678 88.0548 67.3678C87.8183 67.3678 87.6179 67.4064 87.4538 67.4836C87.2897 67.5609 87.1449 67.6767 87.0194 67.8312L86.4763 67.3605C86.6645 67.1385 86.889 66.9671 87.1497 66.8464C87.4104 66.7209 87.741 66.6581 88.1417 66.6581C88.6534 66.6581 89.0444 66.7523 89.3147 66.9405C89.5899 67.1288 89.7275 67.3774 89.7275 67.6864C89.7275 67.9084 89.6599 68.0894 89.5247 68.2294C89.3896 68.3694 89.2085 68.4611 88.9817 68.5046V68.5408C89.2279 68.5794 89.4258 68.676 89.5754 68.8304C89.7251 68.9801 89.7999 69.178 89.7999 69.4242C89.7999 69.7718 89.6502 70.0493 89.351 70.2569C89.0565 70.4645 88.6389 70.5683 88.0983 70.5683ZM91.7083 69.3011H92.9537L92.0051 71.5531H91.3028L91.7083 69.3011ZM98.6386 66.745H100.71C101.043 66.745 101.298 66.8343 101.477 67.013C101.661 67.1867 101.752 67.4136 101.752 67.6936C101.752 68.1474 101.494 68.4201 100.977 68.5118V68.5408C101.253 68.5649 101.472 68.6446 101.636 68.7798C101.805 68.9149 101.89 69.1225 101.89 69.4025C101.89 69.557 101.863 69.6994 101.81 69.8297C101.757 69.96 101.68 70.0735 101.578 70.17C101.482 70.2666 101.361 70.3438 101.216 70.4017C101.072 70.4548 100.907 70.4814 100.724 70.4814H98.6386V66.745ZM100.543 69.808C100.813 69.808 100.948 69.6825 100.948 69.4314V69.2649C100.948 69.0139 100.813 68.8884 100.543 68.8884H99.5437V69.808H100.543ZM100.449 68.3018C100.57 68.3018 100.659 68.2705 100.717 68.2077C100.78 68.1401 100.811 68.0508 100.811 67.9398V67.7805C100.811 67.6695 100.78 67.5826 100.717 67.5198C100.659 67.4522 100.57 67.4184 100.449 67.4184H99.5437V68.3018H100.449ZM104.175 70.5683C103.89 70.5683 103.634 70.5224 103.407 70.4307C103.185 70.339 102.994 70.2086 102.835 70.0397C102.681 69.8707 102.56 69.6656 102.473 69.4242C102.391 69.1828 102.35 68.9125 102.35 68.6132C102.35 68.3139 102.391 68.0436 102.473 67.8022C102.56 67.5609 102.681 67.3557 102.835 67.1867C102.994 67.0178 103.185 66.8874 103.407 66.7957C103.634 66.704 103.89 66.6581 104.175 66.6581C104.455 66.6581 104.708 66.704 104.935 66.7957C105.162 66.8874 105.353 67.0178 105.507 67.1867C105.666 67.3557 105.787 67.5609 105.869 67.8022C105.956 68.0436 105.999 68.3139 105.999 68.6132C105.999 68.9125 105.956 69.1828 105.869 69.4242C105.787 69.6656 105.666 69.8707 105.507 70.0397C105.353 70.2086 105.162 70.339 104.935 70.4307C104.708 70.5224 104.455 70.5683 104.175 70.5683ZM104.175 69.8587C104.44 69.8587 104.65 69.779 104.805 69.6197C104.959 69.4556 105.036 69.2166 105.036 68.9028V68.3236C105.036 68.0098 104.959 67.7733 104.805 67.614C104.65 67.4498 104.44 67.3678 104.175 67.3678C103.909 67.3678 103.699 67.4498 103.545 67.614C103.39 67.7733 103.313 68.0098 103.313 68.3236V68.9028C103.313 69.2166 103.39 69.4556 103.545 69.6197C103.699 69.779 103.909 69.8587 104.175 69.8587ZM106.105 69.75H106.532C106.662 69.5425 106.766 69.2866 106.843 68.9825C106.925 68.6784 106.966 68.3187 106.966 67.9036V66.745H109.602V69.75H110.189V71.4951H109.349V70.4814H106.945V71.4951H106.105V69.75ZM108.697 69.75V67.4764H107.814V67.9326C107.814 68.3332 107.782 68.6832 107.72 68.9825C107.662 69.2818 107.577 69.5376 107.466 69.75H108.697ZM113.553 70.4814C113.326 70.4814 113.149 70.4259 113.024 70.3148C112.903 70.199 112.831 70.0397 112.807 69.8369H112.771C112.703 70.0686 112.57 70.2497 112.372 70.38C112.174 70.5055 111.931 70.5683 111.641 70.5683C111.264 70.5683 110.965 70.4693 110.743 70.2714C110.521 70.0735 110.41 69.7983 110.41 69.4459C110.41 68.6929 110.963 68.3163 112.068 68.3163H112.727V68.0701C112.727 67.8336 112.669 67.655 112.553 67.5343C112.437 67.4136 112.249 67.3533 111.988 67.3533C111.752 67.3533 111.561 67.3991 111.416 67.4909C111.272 67.5826 111.149 67.7008 111.047 67.8457L110.519 67.3967C110.634 67.1891 110.82 67.0154 111.076 66.8754C111.337 66.7306 111.672 66.6581 112.083 66.6581C112.575 66.6581 112.959 66.774 113.234 67.0057C113.514 67.2326 113.654 67.5729 113.654 68.0267V69.7862H114.096V70.4814H113.553ZM111.952 69.9311C112.174 69.9311 112.358 69.8804 112.503 69.779C112.652 69.6728 112.727 69.5304 112.727 69.3518V68.8522H112.09C111.583 68.8522 111.33 69.0115 111.33 69.3301V69.4749C111.33 69.6245 111.385 69.738 111.496 69.8152C111.607 69.8925 111.759 69.9311 111.952 69.9311ZM115.714 69.3011H116.96L116.011 71.5531H115.309L115.714 69.3011ZM124.325 70.5683C124.04 70.5683 123.784 70.5224 123.557 70.4307C123.33 70.339 123.137 70.2086 122.978 70.0397C122.823 69.8707 122.703 69.6656 122.616 69.4242C122.534 69.1828 122.493 68.9125 122.493 68.6132C122.493 68.3139 122.534 68.0436 122.616 67.8022C122.703 67.5609 122.823 67.3557 122.978 67.1867C123.137 67.0178 123.328 66.8874 123.55 66.7957C123.777 66.704 124.033 66.6581 124.317 66.6581C124.713 66.6581 125.032 66.7402 125.273 66.9043C125.515 67.0685 125.698 67.2857 125.823 67.556L125.107 67.947C125.039 67.7877 124.942 67.6598 124.817 67.5633C124.696 67.4619 124.53 67.4112 124.317 67.4112C124.042 67.4112 123.83 67.4909 123.68 67.6502C123.535 67.8095 123.463 68.0267 123.463 68.3018V68.9246C123.463 69.1949 123.535 69.4121 123.68 69.5763C123.83 69.7356 124.047 69.8152 124.332 69.8152C124.554 69.8152 124.73 69.7645 124.86 69.6632C124.996 69.5618 125.104 69.4266 125.186 69.2577L125.881 69.6704C125.756 69.9359 125.565 70.1531 125.309 70.3221C125.058 70.4862 124.73 70.5683 124.325 70.5683ZM126.646 66.745H128.717C129.05 66.745 129.306 66.8343 129.484 67.013C129.668 67.1867 129.759 67.4136 129.759 67.6936C129.759 68.1474 129.501 68.4201 128.985 68.5118V68.5408C129.26 68.5649 129.479 68.6446 129.643 68.7798C129.812 68.9149 129.897 69.1225 129.897 69.4025C129.897 69.557 129.87 69.6994 129.817 69.8297C129.764 69.96 129.687 70.0735 129.586 70.17C129.489 70.2666 129.368 70.3438 129.223 70.4017C129.079 70.4548 128.915 70.4814 128.731 70.4814H126.646V66.745ZM128.55 69.808C128.82 69.808 128.956 69.6825 128.956 69.4314V69.2649C128.956 69.0139 128.82 68.8884 128.55 68.8884H127.551V69.808H128.55ZM128.456 68.3018C128.577 68.3018 128.666 68.2705 128.724 68.2077C128.787 68.1401 128.818 68.0508 128.818 67.9398V67.7805C128.818 67.6695 128.787 67.5826 128.724 67.5198C128.666 67.4522 128.577 67.4184 128.456 67.4184H127.551V68.3018H128.456ZM132.269 70.5683C131.969 70.5683 131.704 70.5224 131.472 70.4307C131.24 70.339 131.045 70.2086 130.886 70.0397C130.731 69.8707 130.613 69.668 130.531 69.4314C130.449 69.1901 130.408 68.9197 130.408 68.6205C130.408 68.3163 130.449 68.0436 130.531 67.8022C130.618 67.5609 130.738 67.3557 130.893 67.1867C131.047 67.0178 131.233 66.8874 131.45 66.7957C131.673 66.704 131.921 66.6581 132.196 66.6581C132.467 66.6581 132.71 66.704 132.928 66.7957C133.145 66.8826 133.328 67.0081 133.478 67.1723C133.632 67.3364 133.751 67.5343 133.833 67.766C133.915 67.9977 133.956 68.2536 133.956 68.5336V68.8377H131.335V68.9318C131.335 69.2021 131.419 69.4218 131.588 69.5907C131.757 69.7549 131.994 69.8369 132.298 69.8369C132.529 69.8369 132.727 69.7911 132.891 69.6994C133.06 69.6028 133.2 69.4773 133.311 69.3228L133.84 69.8514C133.705 70.0493 133.507 70.2183 133.246 70.3583C132.99 70.4983 132.665 70.5683 132.269 70.5683ZM132.204 67.3388C131.943 67.3388 131.733 67.4209 131.574 67.585C131.414 67.7491 131.335 67.9663 131.335 68.2367V68.2874H133.029V68.2222C133.029 67.9519 132.954 67.737 132.805 67.5777C132.66 67.4184 132.459 67.3388 132.204 67.3388ZM135.719 67.4764H134.452V66.745H137.913V67.4764H136.646V70.4814H135.719V67.4764Z" fill="#2C52CD"/>
<path d="M156.109 107.911L130.925 134.736L131.085 110.252L156.109 107.911Z" fill="#E7EFF2"/>
<defs>
<filter id="filter0_d_201_2" x="58.0723" y="0.709717" width="98.0366" height="136.259" filterUnits="userSpaceOnUse" color-interpolation-filters="sRGB">
<feFlood flood-opacity="0" result="BackgroundImageFix"/>
<feColorMatrix in="SourceAlpha" type="matrix" values="0 0 0 0 0 0 0 0 0 0 0 0 0 0 0 0 0 0 127 0" result="hardAlpha"/>
<feOffset dy="2.23261"/>
<feComposite in2="hardAlpha" operator="out"/>
<feColorMatrix type="matrix" values="0 0 0 0 0.375248 0 0 0 0 0.523796 0 0 0 0 0.587459 0 0 0 1 0"/>
<feBlend mode="normal" in2="BackgroundImageFix" result="effect1_dropShadow_201_2"/>
<feBlend mode="normal" in="SourceGraphic" in2="effect1_dropShadow_201_2" result="shape"/>
</filter>
<linearGradient id="paint0_linear_201_2" x1="47.9473" y1="54.089" x2="0.186026" y2="54.089" gradientUnits="userSpaceOnUse">
<stop stop-color="#6088DB"/>
<stop offset="1" stop-color="#2C52CD"/>
</linearGradient>
</defs>
</svg>
