<svg width="117" height="34" viewBox="0 0 117 34" fill="none" xmlns="http://www.w3.org/2000/svg">
<g filter="url(#filter0_i_130_2903)">
<path d="M36.4394 8.53478C35.9585 3.81238 31.9631 0.127808 27.1052 0.127808C23.2115 0.127808 19.8732 2.49478 18.4528 5.86508C17.0324 2.49478 13.6942 0.127808 9.80082 0.127808C4.94255 0.127808 0.946754 3.81238 0.466299 8.53478C0.4342 8.84939 0.417969 9.1691 0.417969 9.49245C0.417969 20.8704 14.4086 26.2406 18.4528 33.8293C22.497 26.241 36.4877 20.8708 36.4877 9.49245C36.4877 9.1691 36.4714 8.84939 36.4394 8.53478Z" fill="#0034BF"/>
</g>
<g filter="url(#filter1_i_130_2903)">
<path d="M76.5092 8.53478C76.0283 3.81238 72.0329 0.127808 67.175 0.127808C63.2813 0.127808 59.943 2.49478 58.5226 5.86508C57.1023 2.49478 53.764 0.127808 49.8706 0.127808C45.0124 0.127808 41.0166 3.81238 40.5361 8.53478C40.504 8.84939 40.4878 9.1691 40.4878 9.49245C40.4878 20.8704 54.4785 26.2406 58.5226 33.8293C62.5668 26.241 76.5575 20.8708 76.5575 9.49245C76.5575 9.1691 76.5413 8.84939 76.5092 8.53478Z" fill="#0034BF"/>
</g>
<g filter="url(#filter2_i_130_2903)">
<path d="M116.579 8.53478C116.098 3.81238 112.102 0.127808 107.244 0.127808C103.351 0.127808 100.012 2.49478 98.592 5.86508C97.1716 2.49478 93.8333 0.127808 89.94 0.127808C85.0817 0.127808 81.0859 3.81238 80.6055 8.53478C80.5734 8.84939 80.5571 9.1691 80.5571 9.49245C80.5571 20.8704 94.5478 26.2406 98.592 33.8293C102.636 26.241 116.627 20.8708 116.627 9.49245C116.627 9.1691 116.611 8.84939 116.579 8.53478Z" fill="#0034BF"/>
</g>
<defs>
<filter id="filter0_i_130_2903" x="0.417969" y="0.127808" width="36.0698" height="33.7015" filterUnits="userSpaceOnUse" color-interpolation-filters="sRGB">
<feFlood flood-opacity="0" result="BackgroundImageFix"/>
<feBlend mode="normal" in="SourceGraphic" in2="BackgroundImageFix" result="shape"/>
<feColorMatrix in="SourceAlpha" type="matrix" values="0 0 0 0 0 0 0 0 0 0 0 0 0 0 0 0 0 0 127 0" result="hardAlpha"/>
<feOffset dy="3.00581"/>
<feComposite in2="hardAlpha" operator="arithmetic" k2="-1" k3="1"/>
<feColorMatrix type="matrix" values="0 0 0 0 0.972549 0 0 0 0 0.466667 0 0 0 0 0.0117647 0 0 0 1 0"/>
<feBlend mode="normal" in2="shape" result="effect1_innerShadow_130_2903"/>
</filter>
<filter id="filter1_i_130_2903" x="40.4878" y="0.127808" width="36.0698" height="33.7015" filterUnits="userSpaceOnUse" color-interpolation-filters="sRGB">
<feFlood flood-opacity="0" result="BackgroundImageFix"/>
<feBlend mode="normal" in="SourceGraphic" in2="BackgroundImageFix" result="shape"/>
<feColorMatrix in="SourceAlpha" type="matrix" values="0 0 0 0 0 0 0 0 0 0 0 0 0 0 0 0 0 0 127 0" result="hardAlpha"/>
<feOffset dy="3.00581"/>
<feComposite in2="hardAlpha" operator="arithmetic" k2="-1" k3="1"/>
<feColorMatrix type="matrix" values="0 0 0 0 0.972549 0 0 0 0 0.466667 0 0 0 0 0.0117647 0 0 0 1 0"/>
<feBlend mode="normal" in2="shape" result="effect1_innerShadow_130_2903"/>
</filter>
<filter id="filter2_i_130_2903" x="80.5571" y="0.127808" width="36.0698" height="33.7015" filterUnits="userSpaceOnUse" color-interpolation-filters="sRGB">
<feFlood flood-opacity="0" result="BackgroundImageFix"/>
<feBlend mode="normal" in="SourceGraphic" in2="BackgroundImageFix" result="shape"/>
<feColorMatrix in="SourceAlpha" type="matrix" values="0 0 0 0 0 0 0 0 0 0 0 0 0 0 0 0 0 0 127 0" result="hardAlpha"/>
<feOffset dy="3.00581"/>
<feComposite in2="hardAlpha" operator="arithmetic" k2="-1" k3="1"/>
<feColorMatrix type="matrix" values="0 0 0 0 0.972549 0 0 0 0 0.466667 0 0 0 0 0.0117647 0 0 0 1 0"/>
<feBlend mode="normal" in2="shape" result="effect1_innerShadow_130_2903"/>
</filter>
</defs>
</svg>
