<svg width="393" height="852" viewBox="0 0 393 852" fill="none" xmlns="http://www.w3.org/2000/svg">
<g clip-path="url(#clip0_79_3313)">
<rect width="393" height="853.882" fill="white"/>
<rect x="-47.1342" y="-36.9332" width="450.901" height="890.815" fill="#DB9C7F"/>
<g clip-path="url(#clip1_79_3313)">
<path d="M412.713 30.6718L337.204 93.8411C336.949 94.0529 336.681 94.2082 336.413 94.3776L340.31 99.037C340.578 98.8675 340.86 98.7122 341.1 98.5004L416.61 35.3311C423.119 29.8811 423.98 20.1953 418.53 13.6864L414.633 9.02704C420.083 15.536 419.208 25.2218 412.713 30.6718Z" fill="white"/>
<path d="M418.544 13.7014C423.994 20.2104 423.119 29.8962 416.624 35.332L341.115 98.5014C340.86 98.7132 340.592 98.8685 340.324 99.0379L336.427 94.3786C336.695 94.2091 336.978 94.0538 337.218 93.842L412.727 30.6727C419.236 25.2227 420.097 15.5369 414.647 9.02798L393.638 -16.0901H235.249L239.146 -11.4308L323.706 89.6486L326.388 92.8678L330.285 97.5271L334.323 102.342L334.959 103.09C337.331 105.928 341.552 106.309 344.39 103.923L345.139 103.288L346.748 101.946L420.648 40.1185C427.157 34.6684 428.018 24.9827 422.568 18.4878L418.53 13.6732L418.544 13.7014Z" fill="#364A62"/>
<path d="M248.944 -16.0773L339.378 92.0335L344.588 87.6706L257.797 -16.0773H248.944Z" fill="#4B5F7E"/>
<path d="M142.973 23.7879L97.2546 37.2153L92.807 38.5284C87.2299 40.1662 84.039 46.0115 85.6768 51.5886L92.1858 73.7558L96.6333 72.4427L162.542 53.0853L156.033 30.9181C154.395 25.341 148.55 22.1501 142.973 23.7879Z" fill="#FF774B"/>
<path d="M96.6332 72.4284L92.1857 73.7415L110.075 134.624C111.713 140.201 117.558 143.392 123.135 141.754L127.583 140.441L173.301 127.013C178.878 125.375 182.069 119.53 180.431 113.953L162.542 53.071L96.6332 72.4284Z" fill="white"/>
<path d="M136.111 34.8706L92.8916 47.5638C92.3128 47.7332 91.988 48.3827 92.1716 49.0181L95.4896 60.3134L96.3085 63.109C96.4921 63.7444 97.1133 64.1115 97.6922 63.9421L152.588 47.8179C153.167 47.6485 153.491 46.999 153.308 46.3636L149.171 32.2586C148.987 31.6232 148.366 31.2561 147.787 31.4255L136.111 34.8565V34.8706Z" fill="#364A62"/>
<path d="M148.368 64.1638L155.114 62.182C155.981 61.9274 156.893 62.4249 157.147 63.2919L159.129 70.0382C159.384 70.9052 158.886 71.8165 158.019 72.0712L151.273 74.0529C150.406 74.3076 149.481 73.8141 149.222 72.9335L147.241 66.1872C146.986 65.3202 147.483 64.4089 148.35 64.1542L148.368 64.1638Z" fill="#C3D1D7"/>
<path d="M132.909 68.7047L139.656 66.7229C140.523 66.4683 141.434 66.9658 141.689 67.8328L143.671 74.5791C143.925 75.4461 143.428 76.3575 142.561 76.6121L135.814 78.5938C134.947 78.8485 134.036 78.351 133.781 77.484L131.8 70.7377C131.545 69.8707 132.042 68.9593 132.909 68.7047Z" fill="#FF774B"/>
<path d="M124.199 71.259L101.969 77.7891C101.101 78.0441 100.604 78.9543 100.859 79.8222L102.844 86.582C103.099 87.4499 104.01 87.9468 104.877 87.6919L127.108 81.1618C127.976 80.9068 128.473 79.9966 128.218 79.1287L126.232 72.3689C125.977 71.501 125.067 71.0041 124.199 71.259Z" fill="#C3D1D7"/>
<path d="M159.339 76.5204L152.579 78.5061C151.711 78.761 151.215 79.6713 151.47 80.5392L153.455 87.299C153.71 88.1669 154.62 88.6638 155.488 88.4088L162.248 86.4232C163.116 86.1682 163.613 85.258 163.358 84.3901L161.372 77.6303C161.117 76.7624 160.207 76.2655 159.339 76.5204Z" fill="#C3D1D7"/>
<path d="M106.2 92.1411L112.946 90.1594C113.813 89.9047 114.724 90.4022 114.979 91.2692L116.961 98.0156C117.215 98.8826 116.718 99.7939 115.851 100.049L109.105 102.03C108.238 102.285 107.326 101.787 107.071 100.92L105.09 94.1741C104.835 93.3071 105.333 92.3958 106.2 92.1411Z" fill="#C3D1D7"/>
<path d="M128.418 85.6014L121.658 87.5871C120.79 87.842 120.293 88.7522 120.548 89.6201L122.534 96.38C122.789 97.2479 123.699 97.7448 124.567 97.4898L131.327 95.5041C132.195 95.2492 132.692 94.339 132.437 93.4711L130.451 86.7112C130.196 85.8433 129.286 85.3465 128.418 85.6014Z" fill="#C3D1D7"/>
<path d="M137.13 83.0444L143.877 81.0627C144.744 80.8081 145.655 81.3056 145.91 82.1726L147.891 88.9189C148.146 89.7859 147.648 90.6972 146.781 90.9519L140.035 92.9336C139.168 93.1883 138.257 92.6908 138.002 91.8238L136.02 85.0775C135.766 84.2105 136.263 83.2991 137.13 83.0444Z" fill="#C3D1D7"/>
<path d="M156.801 92.8436L163.547 90.8619C164.414 90.6072 165.325 91.1047 165.58 91.9717L171.776 113.064C172.031 113.931 171.537 114.856 170.656 115.115L163.91 117.096C163.043 117.351 162.132 116.854 161.877 115.987L155.681 94.8942C155.427 94.0272 155.924 93.1158 156.791 92.8611L156.801 92.8436Z" fill="#4B5F7E"/>
<path d="M110.397 106.47L117.143 104.489C118.01 104.234 118.921 104.732 119.176 105.599L121.158 112.345C121.412 113.212 120.915 114.123 120.048 114.378L113.302 116.36C112.435 116.614 111.523 116.117 111.269 115.25L109.287 108.503C109.032 107.636 109.53 106.725 110.397 106.47Z" fill="#C3D1D7"/>
<path d="M132.629 99.9437L125.869 101.929C125.002 102.184 124.505 103.095 124.76 103.962L126.745 110.722C127 111.59 127.91 112.087 128.778 111.832L135.538 109.846C136.406 109.592 136.903 108.681 136.648 107.813L134.662 101.054C134.407 100.186 133.497 99.6888 132.629 99.9437Z" fill="#C3D1D7"/>
<path d="M141.341 97.372L148.088 95.3902C148.955 95.1356 149.866 95.6331 150.121 96.5001L152.103 103.246C152.357 104.113 151.86 105.025 150.993 105.279L144.246 107.261C143.379 107.516 142.468 107.018 142.213 106.151L140.232 99.405C139.977 98.538 140.474 97.6266 141.341 97.372Z" fill="#C3D1D7"/>
<path d="M121.364 118.829L114.604 120.815C113.736 121.069 113.239 121.98 113.494 122.848L115.48 129.607C115.735 130.475 116.645 130.972 117.513 130.717L124.273 128.732C125.141 128.477 125.638 127.566 125.383 126.699L123.397 119.939C123.142 119.071 122.232 118.574 121.364 118.829Z" fill="#C3D1D7"/>
<path d="M130.08 116.269L136.827 114.288C137.694 114.033 138.605 114.53 138.86 115.397L140.841 122.144C141.096 123.011 140.598 123.922 139.731 124.177L132.985 126.158C132.118 126.413 131.207 125.916 130.952 125.049L128.97 118.302C128.716 117.435 129.213 116.524 130.08 116.269Z" fill="#C3D1D7"/>
<path d="M145.539 111.729L152.285 109.747C153.152 109.493 154.063 109.99 154.318 110.857L156.3 117.604C156.554 118.471 156.057 119.382 155.19 119.637L148.444 121.618C147.577 121.873 146.665 121.376 146.41 120.509L144.429 113.762C144.174 112.895 144.672 111.984 145.539 111.729Z" fill="#C3D1D7"/>
<path d="M295.439 82.7714C296.427 81.656 297.514 80.6112 298.644 79.6087C296.159 77.7591 239.019 35.5991 232.51 30.3468C231.465 31.7022 230.406 33.0436 229.347 34.3849C234.006 37.9006 290.695 79.3263 295.425 82.7714H295.439Z" fill="#FFD77D"/>
<path d="M290.201 91.0029C290.779 89.6051 291.471 88.2779 292.262 87.0072C287.589 83.4915 231.083 41.614 226.241 38.3383C225.28 39.5667 224.32 40.7951 223.374 42.0375C230.42 46.8946 287.702 89.1392 290.201 91.0171V91.0029Z" fill="#FFD77D"/>
<path d="M292.262 87.0084C293.194 85.5118 294.253 84.0999 295.439 82.7727C290.695 79.3276 234.02 37.9019 229.361 34.3862C228.33 35.6993 227.285 37.0123 226.241 38.3395C231.098 41.6152 287.589 83.4928 292.262 87.0084Z" fill="#FEBE69"/>
<path d="M299.322 93.0933C301.482 93.1356 303.275 92.8815 303.727 92.2744C304.15 91.6955 303.953 90.0718 303.374 88.1516C301.552 89.3658 300.013 91.0177 299.322 93.0933Z" fill="#364A62"/>
<path d="M299.322 93.0933C300.014 91.0178 301.553 89.3658 303.374 88.1516C302.414 84.9607 300.451 80.9649 298.743 79.6942C298.715 79.666 298.672 79.6518 298.644 79.6236C295.001 82.8004 292.008 86.5985 290.187 91.0178C290.201 91.0319 290.229 91.046 290.243 91.0601C291.881 92.2885 296.032 93.0368 299.308 93.0933H299.322Z" fill="white"/>
<path d="M230.236 28.497C230.236 28.497 230.194 28.4687 230.18 28.4546C229.05 27.5369 228.02 26.8309 227.045 26.2944C224.179 30.3183 221.242 34.2858 218.447 38.3663C219.124 39.0158 219.943 39.6794 220.918 40.3571C221.002 40.4136 221.073 40.4701 221.158 40.5265C221.906 41.0348 222.64 41.5431 223.36 42.0373C226.396 38.0698 229.502 34.2717 232.509 30.3607C231.761 29.7536 230.999 29.1465 230.236 28.5111V28.497Z" fill="#364A62"/>
<path d="M227.045 26.295C221.426 23.1888 218.334 26.0268 216.908 27.947C215.454 29.8954 213.562 33.75 218.447 38.3811C221.242 34.3006 224.179 30.3331 227.045 26.3091V26.295Z" fill="#FF774B"/>
<path opacity="0.49" d="M-8.22281 -16.0769H-137.145V214.716C-134.999 216.424 -131.879 216.424 -129.747 214.56L48.8188 58.2183C51.2332 56.1146 51.4873 52.4577 49.3836 50.0433L-8.22281 -16.0769Z" fill="url(#paint0_linear_79_3313)"/>
<path d="M-5.20131 -16.0762H-68.2012L-137.145 44.2975V207.12C-136.143 206.937 -135.169 206.527 -134.35 205.807L44.2159 49.4652C46.6303 47.3614 46.8844 43.7045 44.7807 41.2902L-5.20131 -16.0762Z" fill="#364A62"/>
<path d="M-13.8987 -16.0762H-63.6124L-137.145 48.3215V198.154C-136.016 198.084 -134.9 197.66 -133.983 196.87L35.3067 48.6039C37.5516 46.6554 37.7775 43.2527 35.8291 41.0078L-13.8987 -16.0762Z" fill="white"/>
<path d="M-13.8987 -16.0762H-75.9244L-137.145 37.5344V188.85L29.9838 42.4903C32.2287 40.5418 32.4546 37.1391 30.5062 34.8941L-13.8987 -16.0762Z" fill="#E0E5E5"/>
<path d="M-5.20131 -16.0762H-98.0915L-137.145 18.1205V182.087L31.2827 34.6118C33.6971 32.508 33.9513 28.8511 31.8475 26.4368L-5.20131 -16.0762Z" fill="#4B5F7E"/>
<path d="M-11.6538 -16.0762H-103.09L-137.145 13.7436V168.321L21.0604 29.7971C23.3336 27.8204 23.5736 24.3612 21.597 22.088L-11.6538 -16.0762Z" fill="#CE5D3B"/>
<path d="M-19.8712 -16.0762H-98.7693L-137.145 17.5417V160.202L12.6595 28.9782C14.7774 27.1427 14.9892 23.9377 13.1537 21.8198L-19.8712 -16.0762Z" fill="white"/>
<path d="M-19.8712 -16.0762H-110.375L-137.145 7.37583V150.036L7.63306 23.2176C9.75095 21.3821 9.96272 18.177 8.12723 16.0591L-19.8712 -16.0762Z" fill="#E0E5E5"/>
<path d="M-11.6538 -16.0762H-131.258L-137.145 -10.9227V143.669L8.87553 15.7909C11.1487 13.8142 11.3888 10.355 9.41206 8.08179L-11.6538 -16.0762Z" fill="#FF774B"/>
<path d="M-19.137 -16.0762H-137.145V129.352L-2.22215 11.1739C-0.0760345 9.31015 0.149887 6.06274 -1.72797 3.91662L-19.137 -16.0762Z" fill="#FEBE69"/>
</g>
<circle cx="20.438" cy="743.376" r="62.6597" fill="url(#paint1_radial_79_3313)" stroke="#FCFCFC" stroke-width="9.825"/>
</g>
<defs>
<linearGradient id="paint0_linear_79_3313" x1="-246.583" y1="99.9547" x2="50.8096" y2="99.9547" gradientUnits="userSpaceOnUse">
<stop stop-color="#4498E1" stop-opacity="0.3"/>
<stop offset="1" stop-color="#4498E1"/>
</linearGradient>
<radialGradient id="paint1_radial_79_3313" cx="0" cy="0" r="1" gradientUnits="userSpaceOnUse" gradientTransform="translate(20.438 743.376) rotate(90) scale(67.5722)">
<stop stop-color="#513A00"/>
<stop offset="1" stop-color="#3B1E00"/>
</radialGradient>
<clipPath id="clip0_79_3313">
<rect width="393" height="853.882" fill="white"/>
</clipPath>
<clipPath id="clip1_79_3313">
<rect width="674.884" height="248.357" fill="white" transform="translate(-137.145 -16.0778)"/>
</clipPath>
</defs>
</svg>
