<svg width="304" height="414" viewBox="0 0 304 414" fill="none" xmlns="http://www.w3.org/2000/svg">
<g style="mix-blend-mode:multiply">
<path d="M0.142578 4.55618L5.4015 413.108L227.504 410.258L303.214 327.482L298.998 0.710449L0.142578 4.55618ZM110.557 41.9942C103.584 42.0868 97.8845 36.5036 97.7918 29.5535C97.6991 22.6033 103.282 16.8811 110.233 16.7884C117.183 16.6957 122.905 22.279 122.998 29.2291C123.09 36.1792 117.507 41.9015 110.557 41.9942ZM189.58 40.9748C182.606 41.0675 176.907 35.4842 176.815 28.5341C176.722 21.584 182.305 15.8617 189.255 15.769C196.206 15.6764 201.928 21.2596 202.02 28.2098C202.113 35.1599 196.53 40.8822 189.58 40.9748Z" fill="#E7EFF2"/>
</g>
<path d="M0.582581 1.45282L0.582581 410.051L222.685 410.051L299.461 328.271L299.461 1.45282L0.582581 1.45282ZM110.51 40.304C103.537 40.304 97.9075 34.6512 97.9075 27.7011C97.9075 20.751 103.56 15.0982 110.51 15.0982C117.46 15.0982 123.113 20.751 123.113 27.7011C123.113 34.6512 117.46 40.304 110.51 40.304ZM189.533 40.304C182.56 40.304 176.93 34.6512 176.93 27.7011C176.93 20.751 182.583 15.0982 189.533 15.0982C196.483 15.0982 202.136 20.751 202.136 27.7011C202.136 34.6512 196.483 40.304 189.533 40.304Z" fill="#FFE7DC"/>
<path d="M86.8965 86.1214V83.362H88.8612V81.4636H90.8038V79.521H92.7906V78.4393H90.8038V76.5187H88.8612V74.5982H86.8965V71.8388H89.5014V73.7814H91.444V75.7019H93.4528V77.6225H94.7553V71.8388H97.3822V77.6225H98.7067V75.7019H100.693V73.7814H102.636V71.8388H105.263V74.5982H103.276V76.5187H101.312V78.4393H99.3469V79.521H101.312V81.4636H103.276V83.362H105.263V86.1214H102.636V84.2009H100.693V82.2803H98.7067V80.3377H97.3822V86.1214H94.7553V80.3377H93.4528V82.2803H91.444V84.2009H89.5014V86.1214H86.8965ZM106.92 86.1214V73.7814H108.884V71.8388H111.489V74.5982H109.525V77.6225H110.827V75.7019H112.836V73.7814H114.778V71.8388H117.405V74.5982H115.419V76.5187H113.476V78.4393H111.489V79.521H113.476V81.4636H115.419V83.3841H117.405V86.1214H114.778V84.223H112.836V82.2803H110.827V80.3377H109.525V86.1214H106.92ZM111.313 71.1765V69.3884H112.284V68.4171H113.255V67.4679H114.845V69.256H113.917V70.2052H112.924V71.1765H111.313ZM119.053 86.1214V83.3841H121.017V79.521H122.96V78.4393H121.017V74.5982H119.053V71.8388H121.657V73.7814H123.622V77.6225H124.947V73.7814H126.911V71.8388H129.538V74.5982H127.552V78.4393H125.609V79.521H127.552V83.3841H129.538V86.1214H126.911V84.223H124.947V80.3377H123.622V84.223H121.657V86.1214H119.053ZM133.15 89.9846V88.064H131.186V85.3267H133.79V87.2473H139.066V84.223H133.15V82.2803H131.186V75.7019H133.79V81.4636H139.066V75.7019H141.671V88.064H139.707V89.9846H133.15ZM145.283 86.1214V84.223H143.319V77.6225H145.283V75.7019H151.818V77.6225H153.804V80.3377H151.177V78.4393H145.923V83.3841H151.177V81.4636H153.804V84.223H151.818V86.1214H145.283ZM155.452 86.1214V83.362H157.394V75.724H167.902V86.1214H165.275V78.4613H160.021V86.1214H155.452ZM171.511 89.9846V88.064H169.546V85.3267H172.151V87.2473H177.427V84.223H171.511V82.2803H169.546V75.7019H172.151V81.4636H177.427V75.7019H180.032V88.064H178.067V89.9846H171.511ZM181.679 86.1214V75.7019H190.178V78.4393H184.284V86.1214H181.679ZM191.829 86.1214V75.7019H194.434V81.4636H195.736V79.521H197.745V77.6225H199.688V75.7019H202.315V86.1214H199.688V80.3377H198.385V82.2803H196.376V84.223H194.434V86.1214H191.829ZM203.315 86.1214V75.7019H205.92V81.4636H207.222V79.521H209.231V77.6225H211.174V75.7019H213.801V86.1214H211.174V80.3377H209.871V82.2803H207.863V84.223H205.92V86.1214H203.315Z" fill="#2C52CD"/>
<path d="M81.5293 179.859V175.546H77.0658V169.277H82.9837V173.64H94.9196V166.719H81.5293V162.406H77.0658V151.825H81.5293V147.411H96.374V151.825H100.888V175.546H96.374V179.859H81.5293ZM82.9837 160.551H94.9196V153.68H82.9837V160.551ZM116.773 179.859V175.546H112.31V169.277H118.228V173.64H130.164V166.719H116.773V162.406H112.31V151.825H116.773V147.411H131.618V151.825H136.132V175.546H131.618V179.859H116.773ZM118.228 160.551H130.164V153.68H118.228V160.551ZM144.337 179.859V175.546H139.874V169.277H145.792V173.64H157.728V166.719H144.337V162.406H139.874V151.825H144.337V147.411H159.182V151.825H163.696V175.546H159.182V179.859H144.337ZM145.792 160.551H157.728V153.68H145.792V160.551ZM171.902 179.859V175.546H167.438V169.277H173.356V173.64H185.292V166.719H171.902V162.406H167.438V151.825H171.902V147.411H186.746V151.825H191.26V175.546H186.746V179.859H171.902ZM173.356 160.551H185.292V153.68H173.356V160.551ZM204.287 179.307V143.499H214.969C219.483 143.499 222.793 144.419 224.899 146.258C227.039 148.097 228.109 150.671 228.109 153.981C228.109 156.054 227.641 157.926 226.705 159.598C225.768 161.27 224.281 162.59 222.241 163.56C220.235 164.529 217.594 165.014 214.317 165.014H210.706V179.307H204.287ZM200.124 173.389V169.127H218.63V173.389H200.124ZM200.124 165.014V159.698H213.615V165.014H200.124ZM213.615 159.698C215.253 159.698 216.658 159.514 217.828 159.147C219.031 158.779 219.951 158.194 220.586 157.391C221.255 156.589 221.589 155.519 221.589 154.182C221.589 152.376 221.021 151.039 219.884 150.17C218.747 149.267 216.975 148.815 214.568 148.815H210.706V159.698H213.615Z" fill="#2C52CD"/>
<path d="M59.6422 214.064V212.165H57.6775V201.724H59.6422V199.781H66.1765V201.724H68.1632V206.382H65.5363V202.541H60.2824V211.326H65.5363V207.463H68.1632V212.165H66.1765V214.064H59.6422ZM69.8105 217.817V205.565H71.7752V203.644H78.3095V205.565H80.2962V212.165H78.3095V214.064H72.4154V217.817H69.8105ZM72.4154 211.326H77.6693V206.382H72.4154V211.326ZM83.9082 214.064V212.165H81.9435V205.565H83.9082V203.644H90.4424V205.565H92.4292V212.165H90.4424V214.064H83.9082ZM84.5484 211.326H89.8023V206.382H84.5484V211.326ZM101.957 214.086V212.165H96.0412V210.223H94.0765V203.644H96.6813V209.406H101.957V203.644H104.562V214.086H101.957ZM106.209 214.064V203.622H108.814V207.706H114.068V203.622H116.695V214.064H114.068V210.443H108.814V214.064H106.209ZM120.307 214.064V212.165H118.342V205.565H120.307V203.644H126.841V205.565H128.828V212.165H126.841V214.064H120.307ZM120.947 211.326H126.201V206.382H120.947V211.326ZM135.821 214.064V212.165H133.856V205.565H135.821V203.644H142.355V205.565H144.342V212.165H142.355V214.064H135.821ZM136.461 211.326H141.715V206.382H136.461V211.326ZM145.989 214.064V203.644H156.475V214.064H153.848V206.382H148.594V214.064H145.989ZM158.122 214.064V211.304H160.064V203.666H170.572V214.064H167.945V206.404H162.691V214.064H158.122ZM174.181 214.086V212.143H172.195V206.889H180.12V206.293H172.195V203.777H180.76V205.741H182.791V211.591H184.755V214.086H182.128V212.143H180.76V214.086H174.181ZM174.844 211.591H180.12V209.406H174.844V211.591ZM190.564 214.064V206.36H189.261V208.258H186.656V205.543H188.621V203.622H195.155V205.543H197.142V208.258H194.515V206.36H193.213V214.064H190.564ZM198.789 214.064V203.644H201.394V209.406H202.697V207.463H204.705V205.565H206.648V203.644H209.275V214.064H206.648V208.28H205.346V210.223H203.337V212.165H201.394V214.064H198.789ZM214.183 214.064V206.36H212.88V208.258H210.275V205.543H212.24V203.622H218.774V205.543H220.761V208.258H218.134V206.36H216.832V214.064H214.183ZM224.373 214.064V212.165H222.408V205.565H224.373V203.644H230.907V205.565H232.894V208.28H230.267V206.382H225.013V207.463H228.965V210.223H225.013V211.326H230.267V209.384H232.894V212.143H230.907V214.064H224.373ZM234.541 210.223V199.781H237.146V210.223H234.541ZM234.541 214.064V211.326H237.146V214.064H234.541ZM238.806 210.223V199.781H241.411V210.223H238.806ZM238.806 214.064V211.326H241.411V214.064H238.806ZM243.07 210.223V199.781H245.675V210.223H243.07ZM243.07 214.064V211.326H245.675V214.064H243.07Z" fill="#2C52CD"/>
<path d="M299.461 328.271L222.685 410.051L223.172 335.407L299.461 328.271Z" fill="#E7EFF2"/>
</svg>
