<svg width="305" height="414" viewBox="0 0 305 414" fill="none" xmlns="http://www.w3.org/2000/svg">
    <g style="mix-blend-mode:multiply">
        <path d="M0.989502 4.58109L6.24843 413.132L228.351 410.283L304.061 327.507L299.845 0.735352L0.989502 4.58109ZM111.404 42.0191C104.43 42.1117 98.7314 36.5285 98.6387 29.5784C98.5461 22.6282 104.129 16.906 111.079 16.8133C118.03 16.7206 123.752 22.3039 123.844 29.254C123.937 36.2041 118.354 41.9264 111.404 42.0191ZM190.427 40.9997C183.453 41.0924 177.754 35.5091 177.662 28.559C177.569 21.6089 183.152 15.8866 190.102 15.794C197.052 15.7013 202.775 21.2845 202.867 28.2347C202.96 35.1848 197.377 40.9071 190.427 40.9997Z"
              fill="#E7EFF2"/>
    </g>
    <path d="M1.42957 1.47736L1.42957 410.075H223.532L300.308 328.295L300.308 1.47736L1.42957 1.47736ZM111.357 40.3285C104.384 40.3285 98.7544 34.6758 98.7544 27.7257C98.7544 20.7755 104.407 15.1228 111.357 15.1228C118.307 15.1228 123.96 20.7755 123.96 27.7257C123.96 34.6758 118.307 40.3285 111.357 40.3285ZM190.38 40.3285C183.407 40.3285 177.777 34.6758 177.777 27.7257C177.777 20.7755 183.43 15.1228 190.38 15.1228C197.33 15.1228 202.983 20.7755 202.983 27.7257C202.983 34.6758 197.33 40.3285 190.38 40.3285Z"
          fill="#F7FAFB"/>
    <path d="M91.7964 86.146V83.3866H93.7611V81.4881H95.7037V79.5455H97.6904V78.4638H95.7037V76.5433H93.7611V74.6227H91.7964V71.8633H94.4012V73.8059H96.3438V75.7265H98.3527V77.647H99.6551V71.8633H102.282V77.647H103.607V75.7265H105.593V73.8059H107.536V71.8633H110.163V74.6227H108.176V76.5433H106.211V78.4638H104.247V79.5455H106.211V81.4881H108.176V83.3866H110.163V86.146H107.536V84.2254H105.593V82.3049H103.607V80.3623H102.282V86.146H99.6551V80.3623H98.3527V82.3049H96.3438V84.2254H94.4012V86.146H91.7964ZM111.819 86.146V73.8059H113.784V71.8633H116.389V74.6227H114.424V77.647H115.727V75.7265H117.736V73.8059H119.678V71.8633H122.305V74.6227H120.318V76.5433H118.376V78.4638H116.389V79.5455H118.376V81.4881H120.318V83.4086H122.305V86.146H119.678V84.2475H117.736V82.3049H115.727V80.3623H114.424V86.146H111.819ZM116.212 71.2011V69.413H117.184V68.4417H118.155V67.4924H119.744V69.2805H118.817V70.2298H117.824V71.2011H116.212ZM123.952 86.146V83.4086H125.917V79.5455H127.86V78.4638H125.917V74.6227H123.952V71.8633H126.557V73.8059H128.522V77.647H129.847V73.8059H131.811V71.8633H134.438V74.6227H132.451V78.4638H130.509V79.5455H132.451V83.4086H134.438V86.146H131.811V84.2475H129.847V80.3623H128.522V84.2475H126.557V86.146H123.952ZM141.431 90.0091V88.0886H139.466V85.3513H142.071V87.2718H147.347V84.2475H141.431V82.3049H139.466V75.7265H142.071V81.4881H147.347V75.7265H149.952V88.0886H147.987V90.0091H141.431ZM153.564 86.146V84.2475H151.599V77.647H153.564V75.7265H160.098V77.647H162.085V80.3623H159.458V78.4638H154.204V83.4086H159.458V81.4881H162.085V84.2475H160.098V86.146H153.564ZM163.732 86.146V83.3866H165.675V75.7486H176.182V86.146H173.555V78.4859H168.301V86.146H163.732ZM179.791 90.0091V88.0886H177.827V85.3513H180.432V87.2718H185.707V84.2475H179.791V82.3049H177.827V75.7265H180.432V81.4881H185.707V75.7265H188.312V88.0886H186.348V90.0091H179.791ZM189.96 86.146V75.7265H198.459V78.4638H192.564V86.146H189.96ZM200.109 86.146V75.7265H202.714V81.4881H204.017V79.5455H206.025V77.647H207.968V75.7265H210.595V86.146H207.968V80.3623H206.666V82.3049H204.657V84.2475H202.714V86.146H200.109Z"
          fill="#2C52CD"/>
    <path d="M113.791 179.884V171.157H95.9369V160.575H100.4V156.212H104.814V151.849H109.327V147.436H119.759V179.884H113.791ZM101.855 164.888H113.791V153.705H110.832V158.068H106.268V162.431H101.855V164.888ZM127.964 179.884V175.571H123.501V169.302H129.419V173.665H141.355V171.157H132.378V166.744H127.964V162.431H123.501V151.849H127.964V147.436H142.809V151.849H147.323V162.431H141.355V153.705H129.419V160.575H133.882V164.888H142.809V169.302H147.323V175.571H142.809V179.884H127.964ZM155.529 179.884V175.571H151.065V151.849H155.529V147.436H170.373V151.849H174.887V175.571H170.373V179.884H155.529ZM156.983 173.665H168.919V153.705H156.983V173.665ZM186.309 179.884V151.849H190.773V147.436H205.617V151.849H210.131V166.744H205.617V171.157H192.227V179.884H186.309ZM192.227 164.888H204.163V153.705H192.227V164.888Z"
          fill="#2C52CD"/>
    <path d="M75.7108 214.088V199.85H84.2097V202.609H78.3156V214.088H75.7108ZM87.8251 214.11V212.168H85.8384V206.914H93.7633V206.318H85.8384V203.801H94.4035V205.766H96.4344V211.616H98.3991V214.11H95.7722V212.168H94.4035V214.11H87.8251ZM88.4874 211.616H93.7633V209.43H88.4874V211.616ZM102.265 214.088V212.168H100.3V209.408H102.905V211.351H108.159V210.247H104.207V207.488H108.159V206.406H102.905V208.305H100.3V205.589H102.265V203.669H108.799V205.589H110.786V212.19H108.799V214.088H102.265ZM113.404 215.766V214.706L113.736 214.397V213.846H112.433V211.086H115.038V213.029H116.009V214.773H115.038V215.766H113.404ZM123.013 214.088V212.19H121.048V205.589H123.013V203.669H129.547V205.589H131.534V208.349H129.547V209.453H131.534V212.19H129.547V214.088H123.013ZM123.653 211.351H128.907V210.269H124.955V207.532H128.907V206.406H123.653V211.351ZM135.146 214.088V212.19H133.181V205.589H135.146V203.669H141.68V205.589H143.667V212.19H141.68V214.088H135.146ZM135.786 211.351H141.04V206.406H135.786V211.351ZM145.314 214.088V207.466H147.257V203.669H157.764V214.088H155.137V212.168H147.919V214.088H145.314ZM149.884 209.408H155.137V206.406H149.884V209.408ZM161.373 214.11V212.168H159.387V206.914H167.312V206.318H159.387V203.801H167.952V205.766H169.983V211.616H171.947V214.11H169.321V212.168H167.952V214.11H161.373ZM162.036 211.616H167.312V209.43H162.036V211.616ZM174.82 215.766V214.706L175.151 214.397V213.846H173.848V211.086H176.453V213.029H177.425V214.773H176.453V215.766H174.82ZM184.428 214.088V212.19H182.463V205.589H184.428V203.669H190.962V205.589H192.949V208.305H190.322V206.406H185.068V211.351H190.322V209.43H192.949V212.19H190.962V214.088H184.428ZM196.561 214.088V212.19H194.596V205.589H196.561V203.669H203.095V205.589H205.082V208.349H203.095V209.453H205.082V212.19H203.095V214.088H196.561ZM197.201 211.351H202.455V210.269H198.504V207.532H202.455V206.406H197.201V211.351ZM208.694 214.088V212.19H206.729V205.589H208.694V203.669H215.228V205.589H217.215V208.305H214.588V206.406H209.334V207.488H213.286V210.247H209.334V211.351H214.588V209.408H217.215V212.168H215.228V214.088H208.694ZM222.77 214.088V206.384H221.467V208.283H218.862V205.567H220.827V203.647H227.361V205.567H229.348V208.283H226.721V206.384H225.419V214.088H222.77Z"
          fill="#2C52CD"/>
    <path d="M300.308 328.296L223.532 410.076L224.019 335.431L300.308 328.296Z" fill="#E7EFF2"/>
</svg>
