<svg width="432" height="567" viewBox="0 0 432 567" fill="none" xmlns="http://www.w3.org/2000/svg">
<g clip-path="url(#clip0_79_3617)">
<path opacity="0.2" d="M154.776 101.347C160.717 90.9761 195.853 97.8025 237.462 120.381C279.071 142.954 341.012 202.233 352.539 217.777C364.064 233.327 359.535 287.878 359.96 345.667C360.384 403.455 372.513 436.835 394.113 488.191L394.118 488.191C366.31 522.536 329.381 529.31 285.129 513.986C279.992 490.097 270.587 462.163 251.594 438.65C232.595 415.135 229.444 374.105 228.55 351.101C227.656 328.097 220.635 310.311 220.635 310.311C220.629 310.306 215.953 306.209 174.742 287.242C133.507 268.258 116.1 248.085 122.516 236.984C128.932 225.882 149.307 240.87 179.393 253.826C209.431 266.76 233.582 274.042 233.66 274.065C230.509 270.544 152.845 235.403 152.71 235.341C110.335 219.388 103.444 210.698 112.258 195.924C121.063 181.165 154.954 201.613 155.025 201.656L152.887 175.747C130.461 164.868 113.427 148.289 123.453 133.26C133.484 118.232 161.454 139.232 161.454 139.232L161.561 124.635C156.209 119.672 148.842 111.713 154.776 101.347Z" fill="#292929"/>
<path d="M362.728 518.188C338.812 461.328 325.383 424.37 324.913 360.387C324.443 296.405 329.458 236.007 316.697 218.79C303.935 201.58 235.354 135.946 189.285 110.954C143.217 85.9553 104.314 78.3967 97.737 89.8791C91.1668 101.356 99.3229 110.17 105.248 115.663L105.13 131.826C105.13 131.826 74.1627 108.575 63.0558 125.214C51.9551 141.853 70.8148 160.209 95.6446 172.254L98.0119 200.941C98.0119 200.941 60.4202 178.235 50.6612 194.593C40.9022 210.952 48.5317 220.574 95.4482 238.237C95.4482 238.237 181.589 277.211 185.077 281.111C185.077 281.111 158.305 273.046 124.993 258.701C91.6813 244.357 69.1222 227.763 62.0183 240.054C54.9144 252.346 74.188 274.681 119.843 295.7C165.498 316.713 170.655 321.242 170.655 321.242C170.655 321.242 178.429 340.935 179.419 366.405C180.409 391.875 183.897 437.302 204.932 463.337C225.961 489.371 236.375 520.3 242.063 546.75C291.058 563.716 331.945 556.215 362.734 518.189L362.728 518.188Z" fill="url(#paint0_linear_79_3617)"/>
<path d="M201.847 276.764C197.147 314.43 193.818 352.837 203.802 389.007C213.786 425.177 221.346 445.176 221.346 445.176" stroke="white" stroke-width="1.81113" stroke-linecap="round" stroke-linejoin="round"/>
<path d="M193.298 334.205C189.233 336.069 178.497 340.726 178.497 340.726" stroke="white" stroke-width="1.15591" stroke-miterlimit="10"/>
<path d="M197.694 286.951C194.279 293.686 183 313.243 174.799 318.172" stroke="white" stroke-width="1.81113" stroke-linecap="round" stroke-linejoin="round"/>
<path d="M247.826 274.9L274.761 41.9387C275.57 34.946 270.557 28.6218 263.564 27.8132L128.849 12.2371C121.857 11.4286 115.532 16.4419 114.724 23.4347L87.7881 256.396C86.9796 263.388 91.9929 269.713 98.9857 270.521L233.7 286.097C240.693 286.906 247.017 281.893 247.826 274.9Z" fill="#418ECC"/>
<path d="M167.832 54.5848L145.241 51.9728C143.074 51.7222 141.114 53.2758 140.864 55.4428L138.003 80.1825C137.753 82.3496 139.306 84.3094 141.473 84.5599L164.064 87.1719C166.231 87.4225 168.191 85.8689 168.441 83.7019L171.302 58.9622C171.552 56.7952 169.999 54.8353 167.832 54.5848Z" fill="#FFEBD7"/>
<path d="M161.282 78.0331L168.998 78.9253L169.054 78.465L161.289 77.5654C161.211 75.8603 160.05 74.3814 158.42 73.9138L159.336 65.9946C161.03 65.9093 162.498 64.7403 162.962 63.0908L170.727 63.9904L170.783 63.53L163.067 62.6377C163.076 62.5766 163.085 62.5155 163.094 62.4543L164.056 54.1421L163.602 54.087L162.64 62.3992C162.413 64.3403 160.668 65.7367 158.752 65.5139L154.998 65.0802L156.365 53.2474L155.911 53.1922L154.544 65.0251L150.79 64.5914C148.867 64.3677 147.485 62.6121 147.711 60.671L148.673 52.3587L148.219 52.3036L147.257 60.6159C147.248 60.677 147.239 60.7382 147.242 60.8011L140.348 60.0064L140.292 60.4667L147.235 61.2688C147.323 63.1129 148.668 64.6944 150.508 65.012L149.606 72.8394C147.741 72.7306 146.064 73.9621 145.562 75.7372L138.62 74.9352L138.564 75.3956L145.457 76.1903C145.448 76.2515 145.439 76.3126 145.429 76.3799L144.444 84.8887L144.898 84.9438L145.883 76.435C146.11 74.4939 147.855 73.0975 149.772 73.3203L153.526 73.754L152.136 85.7773L152.59 85.8324L153.98 73.8091L157.734 74.2428C159.656 74.4665 161.039 76.2221 160.812 78.1632L159.827 86.672L160.281 86.7271L161.267 78.2183C161.276 78.1572 161.285 78.096 161.282 78.0331ZM157.782 73.7938L150.041 72.8979L150.942 65.0827L158.682 65.9786C158.744 65.9877 158.805 65.9968 158.868 65.9936L157.965 73.8211C157.904 73.812 157.843 73.8029 157.782 73.7938Z" fill="#E0BB9B"/>
<path d="M204.464 46.1324L200.053 84.2473" stroke="white" stroke-width="6.01442" stroke-linecap="round" stroke-linejoin="round"/>
<path d="M241.793 50.4445L235.642 103.699" stroke="white" stroke-width="4.51236" stroke-linecap="round" stroke-linejoin="round"/>
<path d="M234.011 117.761L229.607 155.877" stroke="white" stroke-width="4.51236" stroke-linecap="round" stroke-linejoin="round"/>
<path d="M220.483 234.774L218.916 248.327" stroke="white" stroke-width="4.51236" stroke-linecap="round" stroke-linejoin="round"/>
<path d="M223.327 210.206L221.572 225.356" stroke="white" stroke-width="4.51236" stroke-linecap="round" stroke-linejoin="round"/>
<path d="M198.306 99.3856L193.896 137.501" stroke="white" stroke-width="6.01442" stroke-linecap="round" stroke-linejoin="round"/>
<path d="M192.149 152.639L187.744 190.755" stroke="white" stroke-width="6.01442" stroke-linecap="round" stroke-linejoin="round"/>
<path d="M185.991 205.893L181.587 244.009" stroke="white" stroke-width="6.01442" stroke-linecap="round" stroke-linejoin="round"/>
<path d="M165.188 40.9553C163.651 38.0955 161.122 36.1068 158.088 35.7551C155.206 35.4201 152.433 36.6321 150.323 38.8366" stroke="white" stroke-width="0.865385" stroke-linecap="round" stroke-linejoin="round"/>
<path d="M162.222 43.2074C161.148 40.429 156.103 37.4972 151.934 42.1261" stroke="white" stroke-width="0.865385" stroke-linecap="round" stroke-linejoin="round"/>
<path d="M159.222 45.0109C158.333 43.4663 155.981 42.6474 154.372 44.4266" stroke="white" stroke-width="0.865385" stroke-linecap="round" stroke-linejoin="round"/>
<path d="M284.463 289.498C271.666 272.226 255.636 261.941 240.209 232.866C224.782 203.791 193.593 118.369 169.705 128.425C145.817 138.481 156.611 178.065 167.061 199.262C177.518 220.461 195.154 249.427 199.085 270.21C203.017 290.987 209.253 316.944 210.977 325.981C212.706 335.019 284.456 289.503 284.456 289.503L284.463 289.498Z" fill="url(#paint1_linear_79_3617)"/>
<path d="M292.964 232.375C275.604 239.89 262.439 254.61 262.439 254.61" stroke="white" stroke-width="1.81113" stroke-linecap="round" stroke-linejoin="round"/>
<path d="M276.172 194.754C266.751 199.058 256.819 206.797 256.819 206.797" stroke="white" stroke-width="1.81113" stroke-linecap="round" stroke-linejoin="round"/>
<path d="M280.277 284.2C262.072 264.211 253.206 254.667 253.206 254.667" stroke="white" stroke-width="1.81113" stroke-linecap="round" stroke-linejoin="round"/>
</g>
<defs>
<linearGradient id="paint0_linear_79_3617" x1="40.1164" y1="250.279" x2="394.741" y2="303.059" gradientUnits="userSpaceOnUse">
<stop stop-color="#4B76F6"/>
<stop offset="0.3" stop-color="#4772F2"/>
<stop offset="0.6" stop-color="#3B69E9"/>
<stop offset="0.89" stop-color="#2759DA"/>
<stop offset="1" stop-color="#1E52D3"/>
</linearGradient>
<linearGradient id="paint1_linear_79_3617" x1="148.005" y1="200.536" x2="294.454" y2="222.333" gradientUnits="userSpaceOnUse">
<stop stop-color="#4B76F6"/>
<stop offset="0.3" stop-color="#4772F2"/>
<stop offset="0.6" stop-color="#3B69E9"/>
<stop offset="0.89" stop-color="#2759DA"/>
<stop offset="1" stop-color="#1E52D3"/>
</linearGradient>
<clipPath id="clip0_79_3617">
<rect width="358.517" height="519.392" fill="white" transform="translate(77.3721 0.09375) rotate(8.46544)"/>
</clipPath>
</defs>
</svg>
