<?xml version="1.0" encoding="utf-8"?>
<svg xmlns="http://www.w3.org/2000/svg" viewBox="0 0 75 75">
  <g id="Layer_1" transform="matrix(1, 0, 0, 1, -325.379857, -57.660783)" fill="#800808">
    <g transform="matrix(1, 0, 0, 1, 283.879857, 59.160783)">
      <rect height="7" width="7" x="53" y="6"/>
      <rect height="7" width="8" x="60" y="6"/>
      <rect height="7" width="6" x="68" y="6"/>
      <rect height="8" width="8" x="45" y="13"/>
      <rect height="8" width="7" x="53" y="13"/>
      <rect height="8" width="6" x="68" y="13"/>
      <rect height="8" width="9" x="74" y="13"/>
      <rect height="8" width="7" x="83" y="13"/>
      <rect height="8" width="8" x="90" y="13"/>
      <rect height="8" width="7" x="98" y="13"/>
      <rect height="8" width="8" x="105" y="13"/>
      <rect height="7" width="8" x="45" y="21"/>
      <rect height="7" width="8" x="60" y="21"/>
      <rect height="7" width="6" x="68" y="21"/>
      <rect height="7" width="9" x="74" y="21"/>
      <rect height="7" width="7" x="83" y="21"/>
      <rect height="7" width="8" x="90" y="21"/>
      <rect height="7" width="7" x="98" y="21"/>
      <rect height="7" width="8" x="105" y="21"/>
      <rect height="9" width="8" x="45" y="28"/>
      <rect height="9" width="7" x="53" y="28"/>
      <rect height="9" width="8" x="60" y="28"/>
      <rect height="9" width="6" x="68" y="28"/>
      <rect height="9" width="9" x="74" y="28"/>
      <rect height="9" width="7" x="83" y="28"/>
      <rect height="9" width="8" x="90" y="28"/>
      <rect height="9" width="7" x="98" y="28"/>
      <rect height="9" width="8" x="105" y="28"/>
      <rect height="6" width="7" x="53" y="37"/>
      <rect height="6" width="8" x="60" y="37"/>
      <rect height="6" width="6" x="68" y="37"/>
      <rect height="6" width="9" x="74" y="37"/>
      <rect height="6" width="7" x="83" y="37"/>
      <rect height="6" width="8" x="90" y="37"/>
      <rect height="6" width="7" x="98" y="37"/>
      <rect height="8" width="8" x="60" y="43"/>
      <rect height="8" width="6" x="68" y="43"/>
      <rect height="8" width="9" x="74" y="43"/>
      <rect height="8" width="7" x="83" y="43"/>
      <rect height="7" width="6" x="68" y="51"/>
      <rect height="7" width="9" x="74" y="51"/>
      <rect height="8" width="9" x="74" y="58"/>
      <rect height="7" width="7" x="83" y="51"/>
      <rect height="8" width="8" x="90" y="43"/>
      <rect height="7" width="7" x="83" y="6"/>
      <rect height="7" width="8" x="90" y="6"/>
      <rect height="7" width="7" x="98" y="6"/>
    </g>
  </g>
</svg>