<svg width="214" height="292" viewBox="0 0 214 292" fill="none" xmlns="http://www.w3.org/2000/svg">
<g style="mix-blend-mode:multiply">
<path d="M0.589355 2.76475L4.27592 289.164L159.972 287.166L213.046 229.139L210.09 0.0688477L0.589355 2.76475ZM77.9909 29.0092C73.1026 29.0741 69.1075 25.1602 69.0425 20.2881C68.9775 15.416 72.8915 11.4046 77.7636 11.3397C82.6357 11.2747 86.647 15.1886 86.712 20.0607C86.777 24.9328 82.863 28.9442 77.9909 29.0092ZM133.387 28.2946C128.498 28.3596 124.503 24.4456 124.438 19.5735C124.373 14.7014 128.287 10.69 133.159 10.6251C138.032 10.5601 142.043 14.4741 142.108 19.3462C142.173 24.2183 138.259 28.2296 133.387 28.2946Z" fill="#E7EFF2"/>
</g>
<g filter="url(#filter0_d_129_2295)">
<path d="M0.897949 0.588989L0.897949 287.02H156.594L210.415 229.692L210.415 0.588989L0.897949 0.588989ZM77.9585 27.8241C73.0701 27.8241 69.1237 23.8614 69.1237 18.9893C69.1237 14.1172 73.0864 10.1546 77.9585 10.1546C82.8306 10.1546 86.7933 14.1172 86.7933 18.9893C86.7933 23.8614 82.8306 27.8241 77.9585 27.8241ZM133.354 27.8241C128.466 27.8241 124.52 23.8614 124.52 18.9893C124.52 14.1172 128.482 10.1546 133.354 10.1546C138.226 10.1546 142.189 14.1172 142.189 18.9893C142.189 23.8614 138.226 27.8241 133.354 27.8241Z" fill="#F7FAFB"/>
</g>
<path d="M210.415 229.692L156.594 287.021L156.935 234.694L210.415 229.692Z" fill="#E7EFF2"/>
<defs>
<filter id="filter0_d_129_2295" x="0.897949" y="0.588989" width="209.517" height="291.203" filterUnits="userSpaceOnUse" color-interpolation-filters="sRGB">
<feFlood flood-opacity="0" result="BackgroundImageFix"/>
<feColorMatrix in="SourceAlpha" type="matrix" values="0 0 0 0 0 0 0 0 0 0 0 0 0 0 0 0 0 0 127 0" result="hardAlpha"/>
<feOffset dy="4.77138"/>
<feComposite in2="hardAlpha" operator="out"/>
<feColorMatrix type="matrix" values="0 0 0 0 0.375248 0 0 0 0 0.523796 0 0 0 0 0.587459 0 0 0 1 0"/>
<feBlend mode="normal" in2="BackgroundImageFix" result="effect1_dropShadow_129_2295"/>
<feBlend mode="normal" in="SourceGraphic" in2="effect1_dropShadow_129_2295" result="shape"/>
</filter>
</defs>
</svg>
