<svg width="213" height="292" viewBox="0 0 213 292" fill="none" xmlns="http://www.w3.org/2000/svg">
<g style="mix-blend-mode:multiply">
<path d="M0 2.6959L3.68656 289.095L159.383 287.097L212.456 229.07L209.501 0L0 2.6959ZM77.4016 28.9403C72.5132 29.0053 68.5181 25.0914 68.4531 20.2193C68.3882 15.3471 72.3021 11.3358 77.1742 11.2708C82.0463 11.2059 86.0577 15.1198 86.1227 19.9919C86.1876 24.864 82.2737 28.8754 77.4016 28.9403ZM132.797 28.2258C127.909 28.2907 123.914 24.3768 123.849 19.5047C123.784 14.6326 127.698 10.6212 132.57 10.5562C137.442 10.4913 141.454 14.4052 141.519 19.2773C141.584 24.1494 137.67 28.1608 132.797 28.2258Z" fill="#E0BB9B"/>
</g>
<g filter="url(#filter0_d_129_2328)">
<path d="M9.67997 0.520142L0.308594 286.951H156.005L209.826 229.623L201.161 116.848L209.826 0.520142L9.67997 0.520142ZM77.3691 27.7552C72.4808 27.7552 68.5344 23.7926 68.5344 18.9205C68.5344 14.0484 72.497 10.0857 77.3691 10.0857C82.2412 10.0857 86.2039 14.0484 86.2039 18.9205C86.2039 23.7926 82.2412 27.7552 77.3691 27.7552ZM132.765 27.7552C127.877 27.7552 123.93 23.7926 123.93 18.9205C123.93 14.0484 127.893 10.0857 132.765 10.0857C137.637 10.0857 141.6 14.0484 141.6 18.9205C141.6 23.7926 137.637 27.7552 132.765 27.7552Z" fill="#F0E9E2"/>
</g>
<path d="M209.825 229.623L156.005 286.952L156.346 234.625L209.825 229.623Z" fill="#E0BB9B"/>
<defs>
<filter id="filter0_d_129_2328" x="0.308594" y="0.520142" width="209.517" height="291.203" filterUnits="userSpaceOnUse" color-interpolation-filters="sRGB">
<feFlood flood-opacity="0" result="BackgroundImageFix"/>
<feColorMatrix in="SourceAlpha" type="matrix" values="0 0 0 0 0 0 0 0 0 0 0 0 0 0 0 0 0 0 127 0" result="hardAlpha"/>
<feOffset dy="4.77138"/>
<feComposite in2="hardAlpha" operator="out"/>
<feColorMatrix type="matrix" values="0 0 0 0 0.375248 0 0 0 0 0.523796 0 0 0 0 0.587459 0 0 0 1 0"/>
<feBlend mode="normal" in2="BackgroundImageFix" result="effect1_dropShadow_129_2328"/>
<feBlend mode="normal" in="SourceGraphic" in2="effect1_dropShadow_129_2328" result="shape"/>
</filter>
</defs>
</svg>
