<svg width="49" height="48" viewBox="0 0 49 48" fill="none" xmlns="http://www.w3.org/2000/svg">
<rect x="-0.00927734" y="0.150986" width="49" height="47" rx="23.5" fill="#2C52CD"/>
<path d="M32.7192 23.3629C32.7192 23.7281 32.5688 24.0934 32.3218 24.3404L26.8647 29.776C26.5854 30.0445 26.2632 30.1842 25.9517 30.1842C25.1782 30.1842 24.6519 29.6471 24.6519 28.9381C24.6519 28.5514 24.8237 28.2399 25.0708 28.0035L26.7788 26.2848L28.6479 24.5768L26.811 24.6842H17.6265C16.8101 24.6842 16.2622 24.1471 16.2622 23.3629C16.2622 22.5787 16.8101 22.0524 17.6265 22.0524H26.811L28.6479 22.1598L26.7788 20.4518L25.0708 18.733C24.8237 18.4859 24.6519 18.1852 24.6519 17.7877C24.6519 17.0787 25.1782 16.5416 25.9517 16.5416C26.2632 16.5416 26.5854 16.6813 26.8647 16.9606L32.3218 22.3961C32.5688 22.6432 32.7192 23.0084 32.7192 23.3629Z" fill="white"/>
</svg>
