<svg width="115" height="143" viewBox="0 0 115 143" fill="none" xmlns="http://www.w3.org/2000/svg">
<path d="M69.3851 1.44295L14.8285 17.4662L9.52107 19.0332C2.86577 20.9876 -0.942059 27.9631 1.01241 34.6184L8.77972 61.0711L14.0871 59.5042L92.7377 36.4044L84.9703 9.95163C83.0159 3.29632 76.0404 -0.511518 69.3851 1.44295Z" fill="#FF774B"/>
<path d="M14.0869 59.4872L8.77954 61.0541L30.1271 133.706C32.0816 140.362 39.057 144.17 45.7123 142.215L51.0197 140.648L105.576 124.625C112.232 122.67 116.039 115.695 114.085 109.04L92.7375 36.3874L14.0869 59.4872Z" fill="white"/>
<path d="M61.1966 14.6683L9.62221 29.8154C8.9314 30.0176 8.54386 30.7927 8.7629 31.5509L12.7224 45.03L13.6997 48.3661C13.9187 49.1243 14.66 49.5623 15.3508 49.3601L80.8593 30.1187C81.5501 29.9165 81.9376 29.1415 81.7186 28.3833L76.7819 11.5513C76.5628 10.7931 75.8214 10.355 75.1306 10.5572L61.1966 14.6515V14.6683Z" fill="#364A62"/>
<path d="M75.8233 49.6246L83.8734 47.2599C84.9079 46.956 85.9954 47.5497 86.2993 48.5842L88.664 56.6343C88.9679 57.6689 88.3743 58.7564 87.3397 59.0603L79.2896 61.425C78.255 61.7289 77.1514 61.14 76.8428 60.0892L74.4781 52.0391C74.1742 51.0046 74.7678 49.9171 75.8023 49.6132L75.8233 49.6246Z" fill="#C3D1D7"/>
<path d="M57.3764 55.0435L65.4264 52.6788C66.461 52.3749 67.5485 52.9685 67.8524 54.0031L70.2171 62.0532C70.521 63.0877 69.9273 64.1752 68.8927 64.4791L60.8427 66.8438C59.8081 67.1477 58.7206 66.5541 58.4167 65.5195L56.052 57.4694C55.7481 56.4349 56.3418 55.3474 57.3764 55.0435Z" fill="#FF774B"/>
<path d="M46.982 58.0916L20.4539 65.8842C19.4182 66.1884 18.8252 67.2746 19.1295 68.3103L21.499 76.377C21.8033 77.4127 22.8895 78.0057 23.9251 77.7014L50.4533 69.9089C51.489 69.6046 52.0819 68.5184 51.7777 67.4828L49.4081 59.416C49.1039 58.3804 48.0177 57.7874 46.982 58.0916Z" fill="#C3D1D7"/>
<path d="M88.9153 64.3704L80.849 66.7398C79.8134 67.044 79.2205 68.1302 79.5247 69.1658L81.8941 77.2321C82.1983 78.2677 83.2845 78.8606 84.3201 78.5564L92.3863 76.1869C93.4219 75.8827 94.0149 74.7966 93.7107 73.761L91.3412 65.6947C91.037 64.6591 89.9509 64.0662 88.9153 64.3704Z" fill="#C3D1D7"/>
<path d="M25.5028 83.0109L33.5529 80.6462C34.5875 80.3423 35.6749 80.9359 35.9788 81.9705L38.3435 90.0206C38.6474 91.0552 38.0538 92.1426 37.0193 92.4465L28.9691 94.8112C27.9346 95.1151 26.8471 94.5215 26.5432 93.4869L24.1785 85.4368C23.8746 84.4022 24.4683 83.3148 25.5028 83.0109Z" fill="#C3D1D7"/>
<path d="M52.0161 75.207L43.9498 77.5764C42.9142 77.8806 42.3213 78.9668 42.6255 80.0024L44.995 88.0686C45.2992 89.1042 46.3853 89.6972 47.4209 89.393L55.4872 87.0235C56.5228 86.7193 57.1157 85.6332 56.8115 84.5976L54.442 76.5313C54.1378 75.4957 53.0517 74.9028 52.0161 75.207Z" fill="#C3D1D7"/>
<path d="M62.413 72.1555L70.463 69.7908C71.4976 69.4869 72.5851 70.0806 72.889 71.1152L75.2537 79.1653C75.5576 80.1998 74.9639 81.2873 73.9294 81.5912L65.8793 83.9559C64.8447 84.2598 63.7572 83.6661 63.4534 82.6316L61.0887 74.5815C60.7848 73.5469 61.3784 72.4594 62.413 72.1555Z" fill="#C3D1D7"/>
<path d="M85.8865 83.8492L93.9371 81.4843C94.9717 81.1804 96.0593 81.7741 96.3632 82.8087L103.757 107.979C104.061 109.014 103.472 110.117 102.421 110.426L94.3705 112.791C93.3359 113.095 92.2483 112.501 91.9444 111.466L84.5507 86.2962C84.2468 85.2616 84.8405 84.174 85.8751 83.8701L85.8865 83.8492Z" fill="#4B5F7E"/>
<path d="M30.5114 100.11L38.5614 97.7458C39.596 97.4419 40.6835 98.0356 40.9874 99.0701L43.3521 107.12C43.656 108.155 43.0623 109.242 42.0278 109.546L33.9777 111.911C32.9431 112.215 31.8556 111.621 31.5517 110.587L29.187 102.536C28.8831 101.502 29.4768 100.414 30.5114 100.11Z" fill="#C3D1D7"/>
<path d="M57.0415 92.3222L48.9752 94.6916C47.9396 94.9958 47.3467 96.082 47.6509 97.1176L50.0204 105.184C50.3246 106.219 51.4107 106.812 52.4463 106.508L60.5126 104.139C61.5482 103.835 62.1411 102.748 61.8369 101.713L59.4674 93.6465C59.1632 92.6109 58.0771 92.018 57.0415 92.3222Z" fill="#C3D1D7"/>
<path d="M67.4383 89.253L75.4884 86.8883C76.523 86.5844 77.6105 87.1781 77.9144 88.2126L80.2791 96.2627C80.583 97.2973 79.9893 98.3848 78.9548 98.6887L70.9046 101.053C69.8701 101.357 68.7826 100.764 68.4787 99.7291L66.114 91.6789C65.8101 90.6444 66.4038 89.5569 67.4383 89.253Z" fill="#C3D1D7"/>
<path d="M43.5984 114.858L35.5321 117.228C34.4965 117.532 33.9036 118.618 34.2078 119.654L36.5772 127.72C36.8814 128.756 37.9676 129.348 39.0032 129.044L47.0695 126.675C48.1051 126.371 48.698 125.284 48.3938 124.249L46.0243 116.183C45.7201 115.147 44.634 114.554 43.5984 114.858Z" fill="#C3D1D7"/>
<path d="M54.0004 111.804L62.0505 109.439C63.085 109.135 64.1725 109.729 64.4764 110.763L66.8411 118.813C67.145 119.848 66.5513 120.935 65.5168 121.239L57.4667 123.604C56.4321 123.908 55.3446 123.314 55.0408 122.28L52.6761 114.23C52.3722 113.195 52.9658 112.108 54.0004 111.804Z" fill="#C3D1D7"/>
<path d="M72.4472 106.386L80.4973 104.021C81.5318 103.717 82.6193 104.311 82.9232 105.346L85.2879 113.396C85.5918 114.43 84.9982 115.518 83.9636 115.822L75.9135 118.186C74.8789 118.49 73.7914 117.897 73.4875 116.862L71.1228 108.812C70.8189 107.777 71.4126 106.69 72.4472 106.386Z" fill="#C3D1D7"/>
<path d="M17.0002 44.8492L16.46 42.8329L20.2147 41.8268C20.9973 41.6171 21.5486 41.2966 21.8684 40.8651C22.1941 40.4321 22.2754 39.9108 22.1121 39.3015L22.1073 39.2836C22 38.8833 21.814 38.5714 21.5492 38.3478C21.2904 38.1226 20.9573 37.9909 20.5501 37.9528C20.1473 37.907 19.677 37.9562 19.1394 38.1003L15.4563 39.0871L14.9761 37.2949L18.3455 36.3921C19.0803 36.1952 19.6027 35.8983 19.9125 35.5015C20.2224 35.1048 20.3061 34.6405 20.1637 34.1088L20.1589 34.0909C20.018 33.5652 19.7291 33.204 19.2922 33.0073C18.8597 32.803 18.3238 32.7865 17.6846 32.9578L14.0732 33.9255L13.5354 31.9182L17.8368 30.7656C18.6731 30.5415 19.4223 30.4816 20.0841 30.586C20.7504 30.6828 21.3067 30.9308 21.753 31.3298C22.2036 31.7213 22.5178 32.2486 22.6955 32.9118L22.7003 32.9297C22.8235 33.3897 22.8335 33.8449 22.73 34.2952C22.6325 34.7439 22.4398 35.1477 22.1518 35.5066C21.8697 35.8639 21.5135 36.1355 21.083 36.3213L21.1239 36.4736C21.7146 36.3601 22.2686 36.3846 22.7859 36.5469C23.3092 36.7076 23.7593 36.9776 24.1363 37.3568C24.5132 37.7361 24.7761 38.2035 24.925 38.7591L24.9298 38.777C25.1315 39.5297 25.1238 40.2297 24.9066 40.877C24.6954 41.5227 24.2961 42.0875 23.7086 42.5715C23.1255 43.0479 22.371 43.4101 21.445 43.6582L17.0002 44.8492ZM15.6471 45.2118L12.1822 32.2807L14.8885 31.5556L18.3534 44.4866L15.6471 45.2118ZM33.2666 40.4906L30.8023 41.151L28.1658 31.3115L31.5532 30.4039L35.8443 36.131L35.9966 36.0902L36.8672 28.98L40.2097 28.0844L42.8462 37.9238L40.3819 38.5841L38.6242 32.0245L38.4629 32.0677L37.5853 38.7572L35.7661 39.2446L31.6613 33.8902L31.509 33.931L33.2666 40.4906ZM48.9332 36.5137C47.9355 36.781 47.02 36.8054 46.1867 36.5869C45.3593 36.3668 44.6491 35.9264 44.0558 35.2658C43.4626 34.6051 43.0252 33.7491 42.7434 32.6976L42.741 32.6887C42.4609 31.6432 42.4117 30.6831 42.5935 29.8084C42.7754 28.9337 43.1627 28.1928 43.7556 27.5857C44.3469 26.9726 45.1205 26.538 46.0764 26.2819C47.0322 26.0258 47.9119 26.011 48.7153 26.2375C49.5232 26.4565 50.2145 26.8859 50.7894 27.5259C51.3702 28.1642 51.7943 28.9822 52.0616 29.9799L52.2777 30.7864L44.2126 32.9475L43.7732 31.3075L50.5838 29.4827L49.7625 31.3643L49.484 30.3248C49.3255 29.7334 49.1038 29.2645 48.8189 28.9183C48.5341 28.572 48.2039 28.3435 47.8285 28.2328C47.459 28.1205 47.0652 28.1204 46.647 28.2324C46.2229 28.3461 45.8767 28.5477 45.6085 28.8372C45.3403 29.1268 45.1673 29.4965 45.0893 29.9464C45.0098 30.3903 45.0468 30.8991 45.2005 31.4726L45.4814 32.521C45.6303 33.0766 45.8472 33.5276 46.1321 33.8738C46.4213 34.2125 46.7642 34.4408 47.1608 34.5587C47.5573 34.6765 47.9916 34.6722 48.4635 34.5457C48.8399 34.4449 49.1473 34.3017 49.3857 34.1162C49.6241 33.9306 49.8032 33.7386 49.9229 33.54C50.0485 33.3399 50.1244 33.1691 50.1505 33.0276L50.163 32.9666L52.5981 32.3046L52.5976 32.4103C52.6092 32.7402 52.556 33.1034 52.4382 33.5C52.3263 33.8949 52.1303 34.2868 51.8503 34.6756C51.5763 35.0627 51.2012 35.4194 50.7251 35.7454C50.2474 36.0655 49.6501 36.3216 48.9332 36.5137ZM61.0034 33.0586L59.9157 28.9992L56.1699 30.0028L57.2576 34.0623L54.6409 34.7634L52.0045 24.924L54.6212 24.2228L55.6392 28.0224L59.385 27.0187L58.3669 23.2192L60.9836 22.518L63.6201 32.3575L61.0034 33.0586ZM74.1184 29.7749C73.2044 30.0199 72.3604 30.0603 71.5865 29.8963C70.811 29.7263 70.1291 29.368 69.5408 28.8213C68.9569 28.267 68.4975 27.5321 68.1625 26.6165L67.7452 24.9515C67.6234 24.0429 67.6853 23.2227 67.9311 22.4909C68.1768 21.7592 68.5902 21.1394 69.1713 20.6315C69.7567 20.1161 70.4885 19.7407 71.3667 19.5054C72.3584 19.2396 73.2672 19.2139 74.0929 19.428C74.9187 19.6422 75.6281 20.0796 76.2214 20.7402C76.8206 21.3992 77.2634 22.2634 77.55 23.3328L77.5548 23.3507C77.8445 24.4321 77.8977 25.4071 77.7142 26.2758C77.5308 27.1446 77.1351 27.8781 76.527 28.4764C75.919 29.0748 75.1161 29.5076 74.1184 29.7749ZM73.5596 27.7252C74.0136 27.6036 74.367 27.3808 74.6196 27.057C74.8706 26.7272 75.0181 26.3099 75.0621 25.8051C75.1121 25.2987 75.0506 24.7229 74.8777 24.0776L74.8729 24.0597C74.7001 23.4145 74.4654 22.8851 74.1689 22.4715C73.8783 22.0563 73.5397 21.7725 73.1531 21.62C72.7708 21.4599 72.3557 21.4398 71.9076 21.5599C71.4596 21.68 71.107 21.9057 70.8501 22.2371C70.5975 22.5609 70.4462 22.976 70.3962 23.4824C70.3522 23.9872 70.4166 24.5623 70.5895 25.2075L70.5943 25.2254C70.7672 25.8706 70.9989 26.4008 71.2894 26.816C71.5859 27.2296 71.9253 27.5164 72.3076 27.6765C72.6942 27.829 73.1116 27.8453 73.5596 27.7252ZM65.3057 31.9058L62.6692 22.0664L65.2859 21.3652L66.3016 25.1558L69.0348 24.4235L69.5726 26.4308L66.8395 27.1631L67.9224 31.2047L65.3057 31.9058Z" fill="white"/>
</svg>
