<svg width="171" height="131" viewBox="0 0 171 131" fill="none" xmlns="http://www.w3.org/2000/svg">
<path d="M153.869 111.007C155.756 108.877 157.833 106.881 159.99 104.967C155.244 101.434 46.119 20.9186 33.6884 10.8878C31.6931 13.4764 29.6708 16.038 27.6484 18.5997C36.5467 25.3138 144.809 104.427 153.842 111.007H153.869Z" fill="#FFD77D"/>
<path d="M143.865 126.727C144.97 124.058 146.292 121.523 147.802 119.096C138.876 112.382 30.9648 32.4055 21.716 26.1498C19.8824 28.4957 18.0488 30.8416 16.2422 33.2145C29.6974 42.4902 139.092 123.168 143.865 126.754V126.727Z" fill="#FFD77D"/>
<path d="M147.801 119.098C149.581 116.24 151.603 113.544 153.868 111.009C144.808 104.43 36.5732 25.3162 27.6749 18.602C25.7065 21.1097 23.7112 23.6174 21.7158 26.1521C30.9916 32.4078 138.876 112.384 147.801 119.098Z" fill="#FEBE69"/>
<path d="M161.284 130.719C165.409 130.8 168.834 130.314 169.697 129.155C170.506 128.049 170.128 124.949 169.022 121.281C165.544 123.6 162.605 126.755 161.284 130.719Z" fill="#364A62"/>
<path d="M161.284 130.719C162.605 126.755 165.544 123.6 169.023 121.281C167.189 115.187 163.441 107.557 160.178 105.13C160.124 105.076 160.043 105.049 159.99 104.995C153.033 111.062 147.316 118.315 143.838 126.755C143.865 126.782 143.919 126.809 143.946 126.836C147.074 129.182 155.001 130.611 161.257 130.719H161.284Z" fill="white"/>
<path d="M29.3466 7.35469C29.3466 7.35469 29.2657 7.30076 29.2387 7.2738C27.0816 5.52111 25.1132 4.17289 23.2526 3.14824C17.7788 10.8331 12.1703 18.4101 6.8313 26.2028C8.12559 27.4432 9.68953 28.7105 11.5501 30.0048C11.7119 30.1127 11.8467 30.2205 12.0085 30.3284C13.4376 31.2991 14.8397 32.2698 16.2149 33.2136C22.0123 25.6366 27.9444 18.3831 33.6878 10.914C32.2587 9.75452 30.8027 8.59505 29.3466 7.38165V7.35469Z" fill="#364A62"/>
<path d="M23.2529 3.14961C12.521 -2.78256 6.61581 2.63729 3.8924 6.30445C1.11506 10.0255 -2.49814 17.3868 6.83155 26.2312C12.1705 18.4384 17.7791 10.8614 23.2529 3.17657V3.14961Z" fill="#FF774B"/>
</svg>
