<?xml version="1.0"?>
<svg width="570" height="90" xmlns="http://www.w3.org/2000/svg" xmlns:svg="http://www.w3.org/2000/svg" xml:space="preserve">
 <g class="layer">
  <title>Layer 1</title>
  <g id="svg_10">
   <path d="m243.96,29.02c0,6.08 -6.05,9.56 -16.6,9.56l-1.05,0c-10.54,0 -16.6,-3.48 -16.6,-9.56l0,-1.32l5.49,0l0,1.18c0,3.13 3.51,4.59 11.02,4.59l1.22,0c7.52,0 11.02,-1.46 11.02,-4.59l0,-0.52c0,-2.15 -1.5,-3.57 -8.84,-3.57l-8.54,0l0,-4.92l8.21,0c5.98,0 8.41,-1.09 8.41,-3.75l0,-0.52c0,-2.9 -3.58,-4.36 -10.65,-4.36l-0.47,0c-7.06,0 -10.65,1.46 -10.65,4.36l0,0.92l-5.49,0l0,-1.15c0,-5.87 5.85,-9.24 16.04,-9.24l0.34,0.01l0.32,-0.01c10.19,0 16.04,3.36 16.04,9.24l0,0.61c0,2.64 -1.31,4.73 -3.79,6.12c2.97,1.36 4.54,3.55 4.54,6.37l0,0.56m-33.79,54.28l-26.77,0l0,-31.33l26.77,0l0,4.92l-21.33,0l0,8.27l20.4,0l0,4.92l-20.4,0l0,8.31l21.33,0l0,4.93m23.94,-19.29l-10.53,-12.04l-6.07,0l0,1.23l12.68,14.44l-12.68,14.42l0,1.24l6.07,0l10.53,-12.04l10.49,12.04l6.05,0l0,-1.24l-12.68,-14.42l12.68,-14.44l0,-1.23l-6.02,0l-10.53,12.04" fill="#100f0d" fill-rule="nonzero" id="svg_1"/>
   <path d="m188.97,12.61l-6,12.72l12.01,0l-6,-12.72zm17.39,25.42l-5.38,0l-3.64,-7.74l-16.74,0l-3.64,7.74l-5.38,0l0,-1.18l14.58,-30.16l5.61,0l14.58,30.16l0,1.18" fill="#100f0d" fill-rule="evenodd" id="svg_2"/>
   <path d="m154.83,11.61l19.7,0l0,-4.92l-25.14,0l0,31.33l5.43,0l0,-26.42m4.06,45.28l-13.22,0l0,-4.92l31.84,0l0,4.92l-13.22,0l0,26.42l-5.39,0l0,-26.42" fill="#100f0d" fill-rule="nonzero" id="svg_3"/>
   <path d="m462.57,25.32l6,-12.72l6,12.72l-12.01,0zm3.19,-18.63l-14.58,30.16l0,1.18l5.38,0l3.63,-7.74l16.74,0l3.63,7.74l5.38,0l0,-1.18l-14.58,-30.16l-5.61,0" fill="#100f0d" fill-rule="evenodd" id="svg_4"/>
   <path d="m497.66,19.88l19.48,0l0,-13.18l5.43,0l0,31.33l-5.43,0l0,-13.18l-19.48,0l0,13.18l-5.43,0l0,-31.33l5.43,0l0,13.18m65.53,-13.18l-6.13,0l-13.04,12.99l-6.39,0l0,-12.99l-5.43,0l0,31.33l5.43,0l0,-13.38l6.47,0l12.68,13.38l5.95,0l0,-1.24l-13.82,-14.7l14.28,-14.14l0,-1.25" fill="#100f0d" fill-rule="nonzero" id="svg_5"/>
   <path d="m436.38,24.33l-13.21,0l0,8.78l13.21,0c3.75,0 6.08,-1.57 6.08,-4.09l0,-0.61c0,-2.56 -2.26,-4.09 -6.08,-4.09zm-13.22,-4.92l13.26,0c7.3,0 11.47,3.29 11.47,9.02l0,0.61c0,5.64 -4.29,9 -11.47,9l-18.69,0l0,-31.33l27.79,0l0,4.92l-22.36,0l0,7.79m-127.24,-7.8l13.67,0c3.87,0 6.08,1.64 6.08,4.5l0,0.56c0,2.86 -2.21,4.5 -6.08,4.5l-13.67,0l0,-9.56zm13.76,-4.92l-19.2,0l0,31.33l5.43,0l0,-11.93l13.76,0c7.08,0 11.48,-3.61 11.48,-9.42l0,-0.56c0,-5.82 -4.4,-9.43 -11.48,-9.43" fill="#100f0d" fill-rule="evenodd" id="svg_6"/>
   <path d="m375.13,6.69l12.94,24.88l12.95,-24.88l7.09,0l0,31.33l-5.38,0l0,-23.38l-12.04,23.38l-5.27,0l-12.04,-23.43l0,23.43l-5.39,0l0,-31.33l7.15,0m-123.68,31.33l5.43,0l0,-26.42l18.55,0l0,26.42l5.43,0l0,-31.33l-29.42,0l0,31.33" fill="#100f0d" fill-rule="nonzero" id="svg_7"/>
   <path d="m343.68,11.25c-7.74,0 -12.37,4.04 -12.37,10.79l0,0.75c0,6.8 4.5,10.7 12.37,10.7c7.72,0 12.33,-4 12.33,-10.7l0,-0.75c0,-6.75 -4.61,-10.79 -12.33,-10.79zm-17.85,10.83c0,-9.68 7.01,-15.94 17.85,-15.94c10.82,0 17.81,6.26 17.8,15.94l0,0.61c0,9.66 -6.99,15.9 -17.8,15.9c-10.84,0 -17.85,-6.25 -17.85,-15.9l0,-0.61" fill="#100f0d" fill-rule="evenodd" id="svg_8"/>
   <path d="m84.45,32.87c-13.67,-21.04 -33.11,-32.68 -43.42,-25.98c-4.97,3.23 -6.91,10.11 -6.07,18.74c0.32,-1.05 0.81,-2.01 1.46,-2.87c5.99,-7.9 23.98,-4.34 40.19,7.94c6.35,4.81 11.48,10.24 15.02,15.55c-1.89,-4.41 -4.29,-8.93 -7.18,-13.38m-37.35,24.25c-2.89,-4.45 -5.29,-8.96 -7.18,-13.37c3.54,5.31 8.67,10.74 15.02,15.55c16.21,12.28 34.21,15.84 40.19,7.94c0.65,-0.86 1.14,-1.83 1.46,-2.87c0.85,8.63 -1.1,15.51 -6.07,18.74c-10.31,6.7 -29.75,-4.93 -43.42,-25.98m52.09,-17.46c2.11,4.65 3.71,9.29 4.81,13.79l20.78,-46.76l-51.12,0c3.65,2.83 7.23,6.18 10.61,9.99l25.13,0l-10.22,22.98m-77.02,33.65l10.2,-22.94c-2.11,-4.65 -3.71,-9.28 -4.81,-13.77l-20.76,46.71l51.08,0c-3.65,-2.83 -7.23,-6.18 -10.61,-9.99l-25.09,0" fill="#100f0d" fill-rule="nonzero" id="svg_9"/>
  </g>
 </g>
</svg>